M48
METRIC,LZ,000.000
;FILE_FORMAT=3:3
;TYPE=PLATED
;Layer: PTH_Through_Via
;EasyEDA v6.5.44, 2024-08-27 02:14:39
;c69db122412b4c51b467f6eab680147d,f1a1d2977d3b4f1281c114c53eaa6542,10
;Gerber Generator version 0.2
;Holesize 1 = 0.310 mm
T01C0.310
%
G05
G90
T01
X057150Y058856
X043044Y056515
X043688Y057912
X041402Y059944
X057141Y002286
X058420Y004826
X057277Y013081
X059309Y004826
X058166Y012954
X061722Y004064
X055499Y004064
X011303Y021844
X014732Y020066
X018161Y016764
X019304Y014478
X020828Y011557
X026162Y015875
X027559Y014351
X022479Y014859
X024638Y031115
X026670Y016510
X037211Y002921
X028956Y018923
X031496Y017018
X037084Y014478
X038227Y006350
X040132Y015240
X038735Y004699
X012065Y048768
X046609Y054610
X016002Y045339
X057531Y050927
X047879Y018669
X051943Y017399
X056007Y023876
X056007Y014097
X050165Y019050
X043053Y017907
X025400Y022606
X050546Y024511
M30
