M48
METRIC,LZ,000.000
;FILE_FORMAT=3:3
;TYPE=PLATED
;Layer: PTH_Through
;EasyEDA v6.5.44, 2024-08-27 01:27:02
;f634033934e649328074ea424b2ba572,f1a1d2977d3b4f1281c114c53eaa6542,10
;Gerber Generator version 0.2
;Holesize 1 = 0.701 mm
T01C0.701
;Holesize 2 = 0.901 mm
T02C0.901
;Holesize 3 = 1.250 mm
T03C1.250
;Holesize 4 = 1.301 mm
T04C1.301
;Holesize 5 = 1.400 mm
T05C1.400
%
G05
G90
T01
X037846Y029030
X040346Y026530
X035346Y026530
T02
X009470Y004943
X012010Y004943
X014550Y004943
X017090Y004943
X009470Y012563
X012010Y012563
X014550Y012563
X017090Y012563
T03
X058928Y011562
X061468Y011552
X056388Y011562
X071628Y011562
X074168Y011552
X069088Y011562
X084328Y011562
X086868Y011552
X081788Y011562
X102108Y042042
X104648Y042032
X099568Y042042
T04
X056642Y026670
X056642Y021590
X056642Y024130
T05
X087035Y040386
X092035Y040386
X087035Y027686
X092035Y027686
M30
