M48
METRIC,LZ,000.000
;FILE_FORMAT=3:3
;TYPE=PLATED
;Layer: PTH_Through_Via
;EasyEDA v6.5.44, 2024-08-27 12:09:24
;1dc7b83da83f4ea3951a22daee788f59,f1a1d2977d3b4f1281c114c53eaa6542,10
;Gerber Generator version 0.2
;Holesize 1 = 0.310 mm
T01C0.310
%
G05
G90
T01
X057150Y058856
X043044Y056515
X043688Y057912
X041402Y059944
X057141Y002286
X058420Y004826
X057277Y013081
X059309Y004826
X058166Y012954
X061722Y004064
X055499Y004064
X011303Y021844
X014732Y020066
X018161Y016764
X019304Y014478
X020828Y011557
X026162Y015875
X027559Y014351
X022479Y014859
X024638Y031115
X026670Y016510
X037211Y002921
X028956Y018923
X031496Y017018
X037084Y014478
X038227Y006350
X040132Y015240
X038735Y004699
X012065Y048768
X046609Y054610
X016002Y045339
X057531Y050927
X047879Y018669
X051943Y017399
X056007Y023876
X056007Y014097
X050165Y019050
X043053Y017907
X025400Y022606
X050546Y024511
X022352Y051892
X040386Y063881
X035052Y036576
X028956Y026162
X029464Y021463
X025527Y020828
X025908Y031496
X037592Y039878
X050546Y044069
X027813Y042926
X038735Y030607
X031750Y039243
X073660Y012065
X043307Y033274
X045974Y036195
X052959Y036195
X053594Y004318
X057150Y047625
X052197Y037719
X052197Y036449
X047498Y025654
X065532Y054864
X059055Y039243
X052578Y055245
X068834Y032385
X059563Y036322
X062865Y020066
X068453Y005842
X062357Y012573
X067691Y005207
X063373Y006858
X059436Y013843
X058928Y020701
X063627Y021336
X068072Y009144
X061722Y013843
X067564Y013716
X061595Y016383
X067564Y016510
X070485Y016002
X060833Y036322
X064389Y041148
X052451Y048387
X052070Y043942
X052832Y041402
X061087Y038354
X065913Y022733
X072771Y018034
M30
