G04 Layer: BoardOutlineLayer*
G04 EasyEDA v6.5.44, 2024-08-27 02:14:39*
G04 c69db122412b4c51b467f6eab680147d,f1a1d2977d3b4f1281c114c53eaa6542,10*
G04 Gerber Generator version 0.2*
G04 Scale: 100 percent, Rotated: No, Reflected: No *
G04 Dimensions in millimeters *
G04 leading zeros omitted , absolute positions ,4 integer and 5 decimal *
%FSLAX45Y45*%
%MOMM*%

%ADD10C,0.2540*%
D10*
X8312383Y27800D02*
G01*
X1211597Y27800D01*
X761997Y477398D02*
G01*
X761997Y6078186D01*
X8761981Y6078186D02*
G01*
X8761981Y477398D01*
X1211597Y6527787D02*
G01*
X8312383Y6527787D01*
G75*
G01*
X8312383Y6527787D02*
G02*
X8761982Y6078188I-1J-449600D01*
G75*
G01*
X8761982Y477399D02*
G02*
X8312383Y27800I-449600J1D01*
G75*
G01*
X1211598Y27800D02*
G02*
X761998Y477399I1J449600D01*
G75*
G01*
X761998Y6078188D02*
G02*
X1211598Y6527787I449601J-1D01*
X1599692Y744517D02*
G01*
X1565402Y744517D01*
X1565402Y597197D01*
X1535684Y597197D01*
X2605277Y744517D02*
G01*
X2625597Y744517D01*
X2625597Y597197D01*
X2655570Y597197D01*
X1599600Y744601D02*
G01*
X2605199Y744601D01*
X2655498Y482099D02*
G01*
X2625498Y482099D01*
X2625498Y440601D01*
X2625498Y24803D02*
G01*
X2625498Y440601D01*
X1565501Y24203D02*
G01*
X1565501Y440001D01*
X1535770Y482102D02*
G01*
X1565501Y482102D01*
X1565501Y440001D01*
G75*
G01*
X2655499Y482100D02*
G03*
X2655499Y597101I0J57500D01*
G75*
G01*
X1535770Y597101D02*
G03*
X1535770Y482102I-382J-57500D01*

%LPD*%
M02*
