G04 Layer: TopPasteMaskLayer*
G04 EasyEDA v6.5.44, 2024-08-27 01:27:02*
G04 f634033934e649328074ea424b2ba572,f1a1d2977d3b4f1281c114c53eaa6542,10*
G04 Gerber Generator version 0.2*
G04 Scale: 100 percent, Rotated: No, Reflected: No *
G04 Dimensions in millimeters *
G04 leading zeros omitted , absolute positions ,4 integer and 5 decimal *
%FSLAX45Y45*%
%MOMM*%

%AMMACRO1*21,1,$1,$2,0,0,$3*%
%ADD10R,0.8000X0.9000*%
%ADD11O,0.5739892X2.4005031999999997*%
%ADD12R,1.5000X1.3589*%
%ADD13R,0.9500X1.1500*%
%ADD14O,0.5739892X2.0379944*%
%ADD15R,3.4000X1.1000*%
%ADD16MACRO1,10.5872X8.705X-90.0000*%
%ADD17C,0.0133*%

%LPD*%
G36*
X10501579Y869187D02*
G01*
X10495178Y862787D01*
X10495178Y789178D01*
X10501579Y782777D01*
X10551922Y782777D01*
X10579354Y812139D01*
X10579354Y839774D01*
X10551922Y869187D01*
G37*
G36*
X10658297Y870305D02*
G01*
X10630916Y840943D01*
X10630916Y813257D01*
X10658297Y783894D01*
X10708640Y783894D01*
X10715040Y790295D01*
X10715040Y863904D01*
X10708640Y870305D01*
G37*
G36*
X9374022Y1886508D02*
G01*
X9368993Y1881479D01*
X9368993Y1858721D01*
X9405975Y1858721D01*
X9405975Y1825701D01*
X9368993Y1825701D01*
X9368993Y1801520D01*
X9374022Y1796491D01*
X9453981Y1796491D01*
X9459010Y1801520D01*
X9459010Y1881479D01*
X9453981Y1886508D01*
G37*
G36*
X9215018Y1886508D02*
G01*
X9209989Y1881479D01*
X9209989Y1801520D01*
X9215018Y1796491D01*
X9294977Y1796491D01*
X9300006Y1801520D01*
X9300006Y1824278D01*
X9263024Y1824278D01*
X9263024Y1857298D01*
X9300006Y1857298D01*
X9300006Y1881479D01*
X9294977Y1886508D01*
G37*
G36*
X7596022Y2902508D02*
G01*
X7590993Y2897479D01*
X7590993Y2874721D01*
X7627975Y2874721D01*
X7627975Y2841701D01*
X7590993Y2841701D01*
X7590993Y2817520D01*
X7596022Y2812491D01*
X7675981Y2812491D01*
X7681010Y2817520D01*
X7681010Y2897479D01*
X7675981Y2902508D01*
G37*
G36*
X7437018Y2902508D02*
G01*
X7431989Y2897479D01*
X7431989Y2817520D01*
X7437018Y2812491D01*
X7516977Y2812491D01*
X7522006Y2817520D01*
X7522006Y2840278D01*
X7485024Y2840278D01*
X7485024Y2873298D01*
X7522006Y2873298D01*
X7522006Y2897479D01*
X7516977Y2902508D01*
G37*
G36*
X8104022Y2902508D02*
G01*
X8098993Y2897479D01*
X8098993Y2874721D01*
X8135975Y2874721D01*
X8135975Y2841701D01*
X8098993Y2841701D01*
X8098993Y2817520D01*
X8104022Y2812491D01*
X8183981Y2812491D01*
X8189010Y2817520D01*
X8189010Y2897479D01*
X8183981Y2902508D01*
G37*
G36*
X7945018Y2902508D02*
G01*
X7939989Y2897479D01*
X7939989Y2817520D01*
X7945018Y2812491D01*
X8024977Y2812491D01*
X8030006Y2817520D01*
X8030006Y2840278D01*
X7993024Y2840278D01*
X7993024Y2873298D01*
X8030006Y2873298D01*
X8030006Y2897479D01*
X8024977Y2902508D01*
G37*
G36*
X7596022Y2394508D02*
G01*
X7590993Y2389479D01*
X7590993Y2366721D01*
X7627975Y2366721D01*
X7627975Y2333701D01*
X7590993Y2333701D01*
X7590993Y2309520D01*
X7596022Y2304491D01*
X7675981Y2304491D01*
X7681010Y2309520D01*
X7681010Y2389479D01*
X7675981Y2394508D01*
G37*
G36*
X7437018Y2394508D02*
G01*
X7431989Y2389479D01*
X7431989Y2309520D01*
X7437018Y2304491D01*
X7516977Y2304491D01*
X7522006Y2309520D01*
X7522006Y2332278D01*
X7485024Y2332278D01*
X7485024Y2365298D01*
X7522006Y2365298D01*
X7522006Y2389479D01*
X7516977Y2394508D01*
G37*
G36*
X8104022Y2394508D02*
G01*
X8098993Y2389479D01*
X8098993Y2366721D01*
X8135975Y2366721D01*
X8135975Y2333701D01*
X8098993Y2333701D01*
X8098993Y2309520D01*
X8104022Y2304491D01*
X8183981Y2304491D01*
X8189010Y2309520D01*
X8189010Y2389479D01*
X8183981Y2394508D01*
G37*
G36*
X7945018Y2394508D02*
G01*
X7939989Y2389479D01*
X7939989Y2309520D01*
X7945018Y2304491D01*
X8024977Y2304491D01*
X8030006Y2309520D01*
X8030006Y2332278D01*
X7993024Y2332278D01*
X7993024Y2365298D01*
X8030006Y2365298D01*
X8030006Y2389479D01*
X8024977Y2394508D01*
G37*
G36*
X9374022Y1378508D02*
G01*
X9368993Y1373479D01*
X9368993Y1350721D01*
X9405975Y1350721D01*
X9405975Y1317701D01*
X9368993Y1317701D01*
X9368993Y1293520D01*
X9374022Y1288491D01*
X9453981Y1288491D01*
X9459010Y1293520D01*
X9459010Y1373479D01*
X9453981Y1378508D01*
G37*
G36*
X9215018Y1378508D02*
G01*
X9209989Y1373479D01*
X9209989Y1293520D01*
X9215018Y1288491D01*
X9294977Y1288491D01*
X9300006Y1293520D01*
X9300006Y1316278D01*
X9263024Y1316278D01*
X9263024Y1349298D01*
X9300006Y1349298D01*
X9300006Y1373479D01*
X9294977Y1378508D01*
G37*
G36*
X9374022Y870508D02*
G01*
X9368993Y865479D01*
X9368993Y842721D01*
X9405975Y842721D01*
X9405975Y809701D01*
X9368993Y809701D01*
X9368993Y785520D01*
X9374022Y780491D01*
X9453981Y780491D01*
X9459010Y785520D01*
X9459010Y865479D01*
X9453981Y870508D01*
G37*
G36*
X9215018Y870508D02*
G01*
X9209989Y865479D01*
X9209989Y785520D01*
X9215018Y780491D01*
X9294977Y780491D01*
X9300006Y785520D01*
X9300006Y808278D01*
X9263024Y808278D01*
X9263024Y841298D01*
X9300006Y841298D01*
X9300006Y865479D01*
X9294977Y870508D01*
G37*
G36*
X5564022Y362508D02*
G01*
X5558993Y357479D01*
X5558993Y334721D01*
X5595975Y334721D01*
X5595975Y301701D01*
X5558993Y301701D01*
X5558993Y277520D01*
X5564022Y272491D01*
X5643981Y272491D01*
X5649010Y277520D01*
X5649010Y357479D01*
X5643981Y362508D01*
G37*
G36*
X5405018Y362508D02*
G01*
X5399989Y357479D01*
X5399989Y277520D01*
X5405018Y272491D01*
X5484977Y272491D01*
X5490006Y277520D01*
X5490006Y300278D01*
X5453024Y300278D01*
X5453024Y333298D01*
X5490006Y333298D01*
X5490006Y357479D01*
X5484977Y362508D01*
G37*
G36*
X6072022Y362508D02*
G01*
X6066993Y357479D01*
X6066993Y334721D01*
X6103975Y334721D01*
X6103975Y301701D01*
X6066993Y301701D01*
X6066993Y277520D01*
X6072022Y272491D01*
X6151981Y272491D01*
X6157010Y277520D01*
X6157010Y357479D01*
X6151981Y362508D01*
G37*
G36*
X5913018Y362508D02*
G01*
X5907989Y357479D01*
X5907989Y277520D01*
X5913018Y272491D01*
X5992977Y272491D01*
X5998006Y277520D01*
X5998006Y300278D01*
X5961024Y300278D01*
X5961024Y333298D01*
X5998006Y333298D01*
X5998006Y357479D01*
X5992977Y362508D01*
G37*
G36*
X6580022Y362508D02*
G01*
X6574993Y357479D01*
X6574993Y334721D01*
X6611975Y334721D01*
X6611975Y301701D01*
X6574993Y301701D01*
X6574993Y277520D01*
X6580022Y272491D01*
X6659981Y272491D01*
X6665010Y277520D01*
X6665010Y357479D01*
X6659981Y362508D01*
G37*
G36*
X6421018Y362508D02*
G01*
X6415989Y357479D01*
X6415989Y277520D01*
X6421018Y272491D01*
X6500977Y272491D01*
X6506006Y277520D01*
X6506006Y300278D01*
X6469024Y300278D01*
X6469024Y333298D01*
X6506006Y333298D01*
X6506006Y357479D01*
X6500977Y362508D01*
G37*
D10*
G01*
X2242550Y1281684D03*
G01*
X2102545Y1281684D03*
G01*
X3258550Y1281684D03*
G01*
X3118545Y1281684D03*
D11*
G01*
X1168400Y5189169D03*
G01*
X1295400Y5189169D03*
G01*
X1422400Y5189169D03*
G01*
X1549400Y5189169D03*
G01*
X1676400Y5189169D03*
G01*
X1803400Y5189169D03*
G01*
X1930400Y5189169D03*
G01*
X2057400Y5189169D03*
G01*
X1168400Y6139230D03*
G01*
X1295400Y6139230D03*
G01*
X1422400Y6139230D03*
G01*
X1549400Y6139230D03*
G01*
X1676400Y6139230D03*
G01*
X1803400Y6139230D03*
G01*
X1930400Y6139230D03*
G01*
X2057400Y6139230D03*
D12*
G01*
X9773310Y3352800D03*
G01*
X10013289Y3352800D03*
D10*
G01*
X10674502Y3365500D03*
G01*
X10534497Y3365500D03*
D12*
G01*
X9773310Y2844800D03*
G01*
X10013289Y2844800D03*
G01*
X9773310Y2336800D03*
G01*
X10013289Y2336800D03*
D10*
G01*
X10674502Y2857500D03*
G01*
X10534497Y2857500D03*
D12*
G01*
X9773310Y1828800D03*
G01*
X10013289Y1828800D03*
D10*
G01*
X10674502Y2349500D03*
G01*
X10534497Y2349500D03*
G01*
X10674502Y1841500D03*
G01*
X10534497Y1841500D03*
G01*
X10674502Y1333500D03*
G01*
X10534497Y1333500D03*
D13*
G01*
X10087940Y1308100D03*
G01*
X9749459Y1308100D03*
G01*
X10087940Y800100D03*
G01*
X9749459Y800100D03*
G01*
X8817940Y1816100D03*
G01*
X8479459Y1816100D03*
D11*
G01*
X7251700Y3411169D03*
G01*
X7378700Y3411169D03*
G01*
X7505700Y3411169D03*
G01*
X7632700Y3411169D03*
G01*
X7759700Y3411169D03*
G01*
X7886700Y3411169D03*
G01*
X8013700Y3411169D03*
G01*
X8140700Y3411169D03*
G01*
X7251700Y4361230D03*
G01*
X7378700Y4361230D03*
G01*
X7505700Y4361230D03*
G01*
X7632700Y4361230D03*
G01*
X7759700Y4361230D03*
G01*
X7886700Y4361230D03*
G01*
X8013700Y4361230D03*
G01*
X8140700Y4361230D03*
D14*
G01*
X6235700Y2301184D03*
G01*
X6362700Y2301184D03*
G01*
X6489700Y2301184D03*
G01*
X6616700Y2301184D03*
G01*
X6743700Y2301184D03*
G01*
X6870700Y2301184D03*
G01*
X6997700Y2301184D03*
G01*
X6235700Y2855005D03*
G01*
X6362700Y2855005D03*
G01*
X6489700Y2855005D03*
G01*
X6616700Y2855005D03*
G01*
X6743700Y2855005D03*
G01*
X6870700Y2855005D03*
G01*
X6997700Y2855005D03*
D15*
G01*
X5549900Y4264304D03*
G01*
X5549900Y4094302D03*
G01*
X5549900Y3924300D03*
G01*
X5549900Y3754297D03*
G01*
X5549900Y3584295D03*
D16*
G01*
X6540489Y3924300D03*
D10*
G01*
X3766464Y1281684D03*
G01*
X3626459Y1281684D03*
G01*
X4274464Y1281684D03*
G01*
X4134459Y1281684D03*
M02*
