G04 Layer: BottomLayer*
G04 EasyEDA v6.5.44, 2024-08-27 14:32:38*
G04 23fd9cafee9249e98fa7b3ee852e57a5,f1a1d2977d3b4f1281c114c53eaa6542,10*
G04 Gerber Generator version 0.2*
G04 Scale: 100 percent, Rotated: No, Reflected: No *
G04 Dimensions in millimeters *
G04 leading zeros omitted , absolute positions ,4 integer and 5 decimal *
%FSLAX45Y45*%
%MOMM*%

%AMMACRO1*21,1,$1,$2,0,0,$3*%
%ADD10C,0.2540*%
%ADD11C,1.5240*%
%ADD12R,1.5000X1.5000*%
%ADD13C,1.5000*%
%ADD14MACRO1,2.0015X2.4994X-90.0000*%
%ADD15O,2.4999949999999997X1.9999959999999999*%
%ADD16O,1.7999964X2.5999948*%
%ADD17R,1.8000X2.6000*%
%ADD18O,0.9999979999999999X1.8999962*%
%ADD19C,0.6200*%
%ADD20C,0.0175*%

%LPD*%
D10*
X2540000Y2260600D02*
G01*
X2730500Y2451100D01*
X5054600Y2451100D01*
X5016500Y1905000D02*
G01*
X4940300Y1981200D01*
X4597400Y1981200D01*
X4406900Y1790700D01*
X4305300Y1790700D01*
X5600700Y2387600D02*
G01*
X5600700Y1409700D01*
X4787900Y1866900D02*
G01*
X4914900Y1739900D01*
X5194300Y1739900D01*
X1600200Y4533900D02*
G01*
X4533900Y4533900D01*
X4940300Y4940300D01*
X5092700Y5092700D01*
X5753100Y5092700D01*
X1206500Y4876800D02*
G01*
X1435100Y4648200D01*
X1714500Y4648200D01*
X1993900Y4927600D01*
X4279900Y4927600D01*
X4660900Y5308600D01*
X4660900Y5461000D01*
X4013200Y1524000D02*
G01*
X3886200Y1397000D01*
X3886200Y1168400D01*
X3886200Y482600D01*
X3873500Y469900D01*
X3708400Y1447800D02*
G01*
X3822700Y1333500D01*
X3822700Y635000D01*
X2895600Y1892300D02*
G01*
X3086100Y1701800D01*
X3149600Y1701800D01*
X2667000Y1651000D02*
G01*
X2679700Y1663700D01*
X2921000Y1663700D01*
X3505200Y1079500D01*
X3632200Y1079500D01*
X3721100Y990600D01*
X3721100Y292100D01*
X2247900Y1485900D02*
G01*
X2400300Y1638300D01*
X2400300Y2871343D01*
X2463800Y2934843D01*
X2463800Y3111500D01*
X2616200Y1587500D02*
G01*
X2755900Y1447800D01*
X2755900Y1435100D01*
X1930400Y1447800D02*
G01*
X2006600Y1371600D01*
X2006600Y1231900D01*
X2082800Y1155700D01*
X1816100Y1676400D02*
G01*
X1930400Y1562100D01*
X1930400Y1447800D01*
X1130300Y2184400D02*
G01*
X1308100Y2006600D01*
X1473200Y2006600D01*
X6172200Y406400D02*
G01*
X5549900Y406400D01*
X5930900Y482600D02*
G01*
X5816600Y596900D01*
X5816600Y1295400D01*
X5842000Y482600D02*
G01*
X5727700Y596900D01*
X5727700Y1308100D01*
X4368800Y5791200D02*
G01*
X4165600Y5994400D01*
X4140200Y5994400D01*
X5715000Y5885561D02*
G01*
X5829300Y5771261D01*
X5829300Y5499595D01*
X2235200Y5189169D02*
G01*
X2839669Y5189169D01*
X4038600Y6388100D01*
X3505200Y3657600D02*
G01*
X2895600Y3048000D01*
X2895600Y2616200D01*
X2946400Y2146300D02*
G01*
X2882900Y2082800D01*
X2552700Y2082800D01*
X3759200Y3987800D02*
G01*
X3911600Y3835400D01*
X4940300Y3835400D01*
X5054600Y3949700D01*
X5054600Y4406900D01*
X2781300Y4292600D02*
G01*
X2730500Y4241800D01*
X2730500Y3937000D01*
X2895600Y3771900D01*
X3594100Y3771900D01*
X3873500Y3492500D01*
X3873500Y3060700D01*
X3175000Y3924300D02*
G01*
X3644900Y3924300D01*
X3860800Y3708400D01*
X6121400Y3708400D01*
X7366000Y2463800D01*
X7366000Y1206500D01*
X4330700Y3327400D02*
G01*
X4597400Y3594100D01*
X4597400Y3619500D01*
X5295900Y3619500D02*
G01*
X5689600Y3225800D01*
X5689600Y1397000D01*
X5359400Y1066800D01*
X5359400Y431800D01*
X5715000Y4762500D02*
G01*
X5219700Y4267200D01*
X5219700Y3771900D01*
X5219700Y3644900D02*
G01*
X5092700Y3517900D01*
X5092700Y2667000D01*
X4991100Y2565400D01*
X4749800Y2565400D01*
X6553200Y5486400D02*
G01*
X6565900Y5473700D01*
X6565900Y3975100D01*
X6515100Y3924300D01*
X5905500Y3924300D01*
X5257800Y5524500D02*
G01*
X5181600Y5600700D01*
X5181600Y6426200D01*
X6413500Y6426200D01*
X6807200Y6032500D01*
X6883400Y5956300D01*
X6883400Y3238500D01*
X5956300Y3632200D02*
G01*
X6286500Y3302000D01*
X6286500Y2006600D01*
X6845300Y584200D02*
G01*
X6235700Y1193800D01*
X6235700Y1257300D01*
X6769100Y520700D02*
G01*
X6604000Y685800D01*
X6337300Y685800D01*
X5943600Y1384300D02*
G01*
X5892800Y1435100D01*
X5892800Y2070100D01*
X6362700Y2133600D02*
G01*
X6807200Y1689100D01*
X6807200Y914400D01*
X6172200Y1384300D02*
G01*
X6184900Y1371600D01*
X6756400Y1371600D01*
X6159500Y1638300D02*
G01*
X6210300Y1587500D01*
X6743700Y1587500D01*
X6756400Y1600200D01*
X6756400Y1651000D01*
X7048500Y1600200D02*
G01*
X6413500Y2235200D01*
X6413500Y3302000D01*
X6083300Y3632200D01*
X5245100Y4838700D02*
G01*
X5207000Y4800600D01*
X5207000Y4394200D01*
X5283200Y4140200D02*
G01*
X5588000Y3835400D01*
X6108700Y3835400D01*
X6591300Y2273300D02*
G01*
X7061200Y1803400D01*
X7277100Y1803400D01*
X10998200Y3327400D02*
G01*
X9575800Y1905000D01*
X7442200Y1905000D01*
X6807200Y2349500D02*
G01*
X6743700Y2413000D01*
X6540500Y2413000D01*
X6070600Y2374900D02*
G01*
X6159500Y2286000D01*
X6159500Y1765300D01*
X6248400Y1676400D01*
X6350000Y1676400D01*
D11*
G01*
X3784625Y2903016D03*
G01*
X4034586Y2653029D03*
G01*
X3534613Y2653029D03*
D12*
G01*
X914400Y1828800D03*
D13*
G01*
X1168400Y1828800D03*
G01*
X1422400Y1828800D03*
G01*
X1676400Y1828800D03*
G01*
X914400Y2590800D03*
G01*
X1168400Y2590800D03*
G01*
X1422400Y2590800D03*
G01*
X1676400Y2590800D03*
D14*
G01*
X2247900Y3390900D03*
D15*
G01*
X2247900Y2882900D03*
G01*
X2247900Y3136900D03*
D16*
G01*
X5829300Y6134582D03*
G01*
X6083300Y6133592D03*
D17*
G01*
X5575300Y6134607D03*
D16*
G01*
X5829300Y4902682D03*
G01*
X6083300Y4901692D03*
D17*
G01*
X5575300Y4902707D03*
D16*
G01*
X5829300Y5499582D03*
G01*
X6083300Y5498592D03*
D17*
G01*
X5575300Y5499607D03*
D16*
G01*
X5829300Y4280382D03*
G01*
X6083300Y4279392D03*
D17*
G01*
X5575300Y4280407D03*
D18*
G01*
X1451000Y354609D03*
G01*
X2739999Y354609D03*
D19*
G01*
X5715000Y5885561D03*
G01*
X4304436Y5651500D03*
G01*
X4368800Y5791200D03*
G01*
X4140200Y5994400D03*
G01*
X5714136Y228600D03*
G01*
X5842000Y482600D03*
G01*
X5727700Y1308100D03*
G01*
X5930900Y482600D03*
G01*
X5816600Y1295400D03*
G01*
X6172200Y406400D03*
G01*
X5549900Y406400D03*
G01*
X1130300Y2184400D03*
G01*
X1473200Y2006600D03*
G01*
X1816100Y1676400D03*
G01*
X1930400Y1447800D03*
G01*
X2082800Y1155700D03*
G01*
X2616200Y1587500D03*
G01*
X2755900Y1435100D03*
G01*
X2247900Y1485900D03*
G01*
X2463800Y3111500D03*
G01*
X2667000Y1651000D03*
G01*
X3721100Y292100D03*
G01*
X2895600Y1892300D03*
G01*
X3149600Y1701800D03*
G01*
X3708400Y1447800D03*
G01*
X3822700Y635000D03*
G01*
X4013200Y1524000D03*
G01*
X3873500Y469900D03*
G01*
X1206500Y4876800D03*
G01*
X4660900Y5461000D03*
G01*
X1600200Y4533900D03*
G01*
X5753100Y5092700D03*
G01*
X4787900Y1866900D03*
G01*
X5194300Y1739900D03*
G01*
X5600700Y2387600D03*
G01*
X5600700Y1409700D03*
G01*
X5016500Y1905000D03*
G01*
X4305300Y1790700D03*
G01*
X2540000Y2260600D03*
G01*
X5054600Y2451100D03*
G01*
X2235200Y5189169D03*
G01*
X4038600Y6388100D03*
G01*
X3505200Y3657600D03*
G01*
X2895600Y2616200D03*
G01*
X2946400Y2146300D03*
G01*
X2552700Y2082800D03*
G01*
X2590800Y3149600D03*
G01*
X3759200Y3987800D03*
G01*
X5054600Y4406900D03*
G01*
X2781300Y4292600D03*
G01*
X3873500Y3060700D03*
G01*
X3175000Y3924300D03*
G01*
X7366000Y1206500D03*
G01*
X4330700Y3327400D03*
G01*
X4597400Y3619500D03*
G01*
X5295900Y3619500D03*
G01*
X5359400Y431800D03*
G01*
X5715000Y4762500D03*
G01*
X5219700Y3771900D03*
G01*
X5219700Y3644900D03*
G01*
X4749800Y2565400D03*
G01*
X6553200Y5486400D03*
G01*
X5905500Y3924300D03*
G01*
X5257800Y5524500D03*
G01*
X6883400Y3238500D03*
G01*
X5956300Y3632200D03*
G01*
X6286500Y2006600D03*
G01*
X6845300Y584200D03*
G01*
X6235700Y1257300D03*
G01*
X6769100Y520700D03*
G01*
X6337300Y685800D03*
G01*
X5943600Y1384300D03*
G01*
X5892800Y2070100D03*
G01*
X6362700Y2133600D03*
G01*
X6807200Y914400D03*
G01*
X6172200Y1384300D03*
G01*
X6756400Y1371600D03*
G01*
X6159500Y1638300D03*
G01*
X6756400Y1651000D03*
G01*
X7048500Y1600200D03*
G01*
X6083300Y3632200D03*
G01*
X6438900Y4114800D03*
G01*
X5245100Y4838700D03*
G01*
X5207000Y4394200D03*
G01*
X5283200Y4140200D03*
G01*
X6108700Y3835400D03*
G01*
X6591300Y2273300D03*
G01*
X7277100Y1803400D03*
G01*
X10998200Y3327400D03*
G01*
X7442200Y1905000D03*
G01*
X6807200Y2349500D03*
G01*
X6540500Y2413000D03*
G01*
X6070600Y2374900D03*
G01*
X6350000Y1676400D03*
M02*
