G04 Layer: TopSolderMaskLayer*
G04 EasyEDA v6.5.44, 2024-08-27 01:27:02*
G04 f634033934e649328074ea424b2ba572,f1a1d2977d3b4f1281c114c53eaa6542,10*
G04 Gerber Generator version 0.2*
G04 Scale: 100 percent, Rotated: No, Reflected: No *
G04 Dimensions in millimeters *
G04 leading zeros omitted , absolute positions ,4 integer and 5 decimal *
%FSLAX45Y45*%
%MOMM*%

%AMMACRO1*4,1,8,-0.4211,-0.5008,-0.4508,-0.471,-0.4508,0.4711,-0.4211,0.5008,0.421,0.5008,0.4508,0.4711,0.4508,-0.471,0.421,-0.5008,-0.4211,-0.5008,0*%
%AMMACRO2*4,1,8,-0.7711,-0.8008,-0.8008,-0.771,-0.8008,0.7711,-0.7711,0.8008,0.771,0.8008,0.8008,0.7711,0.8008,-0.771,0.771,-0.8008,-0.7711,-0.8008,0*%
%AMMACRO3*4,1,8,-0.7711,-0.7303,-0.8008,-0.7005,-0.8008,0.7005,-0.7711,0.7303,0.771,0.7303,0.8008,0.7005,0.8008,-0.7005,0.771,-0.7303,-0.7711,-0.7303,0*%
%AMMACRO4*4,1,8,-0.4961,-0.6258,-0.5258,-0.596,-0.5258,0.5961,-0.4961,0.6258,0.496,0.6258,0.5258,0.5961,0.5258,-0.596,0.496,-0.6258,-0.4961,-0.6258,0*%
%AMMACRO5*4,1,8,-0.4211,-0.4828,-0.4508,-0.453,-0.4508,0.4531,-0.4211,0.4828,0.421,0.4828,0.4508,0.4531,0.4508,-0.453,0.421,-0.4828,-0.4211,-0.4828,0*%
%AMMACRO6*4,1,8,-0.4243,-0.4828,-0.454,-0.453,-0.454,0.4531,-0.4243,0.4828,0.4243,0.4828,0.454,0.4531,0.454,-0.453,0.4243,-0.4828,-0.4243,-0.4828,0*%
%AMMACRO7*4,1,8,-1.7211,-0.6008,-1.7508,-0.571,-1.7508,0.5711,-1.7211,0.6008,1.721,0.6008,1.7508,0.5711,1.7508,-0.571,1.721,-0.6008,-1.7211,-0.6008,0*%
%AMMACRO8*4,1,8,-4.3735,-5.3444,-4.4033,-5.3146,-4.4033,5.3146,-4.3735,5.3444,4.3735,5.3444,4.4033,5.3146,4.4033,-5.3146,4.3735,-5.3444,-4.3735,-5.3444,0*%
%AMMACRO9*4,1,8,-1.2707,-1.0516,-1.3005,-1.0218,-1.3005,1.0218,-1.2707,1.0516,1.2707,1.0516,1.3005,1.0218,1.3005,-1.0218,1.2707,-1.0516,-1.2707,-1.0516,0*%
%AMMACRO10*4,1,8,-0.9211,-1.3508,-0.9508,-1.321,-0.9508,1.3211,-0.9211,1.3508,0.921,1.3508,0.9508,1.3211,0.9508,-1.321,0.921,-1.3508,-0.9211,-1.3508,0*%
%ADD10MACRO1*%
%ADD11C,1.6256*%
%ADD12O,0.6755891999999999X2.5021032*%
%ADD13MACRO2*%
%ADD14C,1.6016*%
%ADD15MACRO3*%
%ADD16MACRO4*%
%ADD17MACRO5*%
%ADD18MACRO6*%
%ADD19O,0.6755891999999999X2.1395944*%
%ADD20MACRO7*%
%ADD21MACRO8*%
%ADD22MACRO9*%
%ADD23O,2.601595X2.101596*%
%ADD24C,2.3016*%
%ADD25O,1.9015964X2.7015948*%
%ADD26MACRO10*%

%LPD*%
D10*
G01*
X2242548Y1281684D03*
G01*
X2102548Y1281684D03*
G01*
X3258548Y1281684D03*
G01*
X3118548Y1281684D03*
D11*
G01*
X3784612Y2903016D03*
G01*
X4034599Y2653029D03*
G01*
X3534600Y2653029D03*
D12*
G01*
X1168400Y5189169D03*
G01*
X1295400Y5189169D03*
G01*
X1422400Y5189169D03*
G01*
X1549400Y5189169D03*
G01*
X1676400Y5189169D03*
G01*
X1803400Y5189169D03*
G01*
X1930400Y5189169D03*
G01*
X2057400Y5189169D03*
G01*
X1168400Y6139230D03*
G01*
X1295400Y6139230D03*
G01*
X1422400Y6139230D03*
G01*
X1549400Y6139230D03*
G01*
X1676400Y6139230D03*
G01*
X1803400Y6139230D03*
G01*
X1930400Y6139230D03*
G01*
X2057400Y6139230D03*
D13*
G01*
X946988Y494284D03*
D14*
G01*
X1200988Y494284D03*
G01*
X1454988Y494284D03*
G01*
X1708988Y494284D03*
G01*
X946988Y1256284D03*
G01*
X1200988Y1256284D03*
G01*
X1454988Y1256284D03*
G01*
X1708988Y1256284D03*
D15*
G01*
X9773300Y3352800D03*
G01*
X10013298Y3352800D03*
D10*
G01*
X10674499Y3365500D03*
G01*
X10534500Y3365500D03*
D15*
G01*
X9773300Y2844800D03*
G01*
X10013298Y2844800D03*
G01*
X9773300Y2336800D03*
G01*
X10013298Y2336800D03*
D10*
G01*
X10674499Y2857500D03*
G01*
X10534500Y2857500D03*
D15*
G01*
X9773300Y1828800D03*
G01*
X10013298Y1828800D03*
D10*
G01*
X10674499Y2349500D03*
G01*
X10534500Y2349500D03*
G01*
X10674499Y1841500D03*
G01*
X10534500Y1841500D03*
G01*
X10674499Y1333500D03*
G01*
X10534500Y1333500D03*
D16*
G01*
X10087940Y1308100D03*
G01*
X9749459Y1308100D03*
G01*
X10087940Y800100D03*
G01*
X9749459Y800100D03*
G01*
X8817940Y1816100D03*
G01*
X8479459Y1816100D03*
D17*
G01*
X10534500Y825512D03*
G01*
X10674499Y825512D03*
D18*
G01*
X9409824Y1841500D03*
G01*
X9259175Y1841500D03*
G01*
X7631824Y2857500D03*
G01*
X7481175Y2857500D03*
G01*
X8139824Y2857500D03*
G01*
X7989175Y2857500D03*
G01*
X7631824Y2349500D03*
G01*
X7481175Y2349500D03*
G01*
X8139824Y2349500D03*
G01*
X7989175Y2349500D03*
G01*
X9409824Y1333500D03*
G01*
X9259175Y1333500D03*
G01*
X9409824Y825500D03*
G01*
X9259175Y825500D03*
G01*
X5599824Y317500D03*
G01*
X5449175Y317500D03*
G01*
X6107824Y317500D03*
G01*
X5957175Y317500D03*
G01*
X6615824Y317500D03*
G01*
X6465175Y317500D03*
D12*
G01*
X7251700Y3411169D03*
G01*
X7378700Y3411169D03*
G01*
X7505700Y3411169D03*
G01*
X7632700Y3411169D03*
G01*
X7759700Y3411169D03*
G01*
X7886700Y3411169D03*
G01*
X8013700Y3411169D03*
G01*
X8140700Y3411169D03*
G01*
X7251700Y4361230D03*
G01*
X7378700Y4361230D03*
G01*
X7505700Y4361230D03*
G01*
X7632700Y4361230D03*
G01*
X7759700Y4361230D03*
G01*
X7886700Y4361230D03*
G01*
X8013700Y4361230D03*
G01*
X8140700Y4361230D03*
D19*
G01*
X6235700Y2301184D03*
G01*
X6362700Y2301184D03*
G01*
X6489700Y2301184D03*
G01*
X6616700Y2301184D03*
G01*
X6743700Y2301184D03*
G01*
X6870700Y2301184D03*
G01*
X6997700Y2301184D03*
G01*
X6235700Y2855005D03*
G01*
X6362700Y2855005D03*
G01*
X6489700Y2855005D03*
G01*
X6616700Y2855005D03*
G01*
X6743700Y2855005D03*
G01*
X6870700Y2855005D03*
G01*
X6997700Y2855005D03*
D20*
G01*
X5549900Y4264304D03*
G01*
X5549900Y4094302D03*
G01*
X5549900Y3924300D03*
G01*
X5549900Y3754297D03*
G01*
X5549900Y3584295D03*
D21*
G01*
X6540489Y3924300D03*
D22*
G01*
X5664200Y2667000D03*
D23*
G01*
X5664200Y2159000D03*
G01*
X5664200Y2413000D03*
D24*
G01*
X8703500Y4038600D03*
G01*
X9203499Y4038600D03*
G01*
X8703500Y2768600D03*
G01*
X9203499Y2768600D03*
D25*
G01*
X5892800Y1156195D03*
G01*
X6146800Y1155204D03*
D26*
G01*
X5638794Y1156197D03*
D25*
G01*
X7162800Y1156195D03*
G01*
X7416800Y1155204D03*
D26*
G01*
X6908794Y1156197D03*
D25*
G01*
X8432800Y1156195D03*
G01*
X8686800Y1155204D03*
D26*
G01*
X8178794Y1156197D03*
D25*
G01*
X10210800Y4204195D03*
G01*
X10464800Y4203204D03*
D26*
G01*
X9956794Y4204197D03*
D10*
G01*
X3766461Y1281684D03*
G01*
X3626462Y1281684D03*
G01*
X4274461Y1281684D03*
G01*
X4134462Y1281684D03*
M02*
