G04 Layer: BoardOutlineLayer*
G04 EasyEDA v6.5.44, 2024-08-27 12:09:24*
G04 1dc7b83da83f4ea3951a22daee788f59,f1a1d2977d3b4f1281c114c53eaa6542,10*
G04 Gerber Generator version 0.2*
G04 Scale: 100 percent, Rotated: No, Reflected: No *
G04 Dimensions in millimeters *
G04 leading zeros omitted , absolute positions ,4 integer and 5 decimal *
%FSLAX45Y45*%
%MOMM*%

%ADD10C,0.2540*%
D10*
X761997Y524200D02*
G01*
X761997Y6027788D01*
X13261972Y24201D02*
G01*
X1261996Y24201D01*
X13761971Y6027788D02*
G01*
X13761971Y524200D01*
X1261996Y6527787D02*
G01*
X13261972Y6527787D01*
G75*
G01*
X13261973Y6527787D02*
G02*
X13761972Y6027788I0J-499999D01*
G75*
G01*
X13761972Y524200D02*
G02*
X13261973Y24201I-499999J0D01*
G75*
G01*
X1261997Y24201D02*
G02*
X761998Y524200I0J499999D01*
G75*
G01*
X761998Y6027788D02*
G02*
X1261997Y6527787I499999J0D01*
X1599692Y744517D02*
G01*
X1565402Y744517D01*
X1565402Y597197D01*
X1535684Y597197D01*
X2605277Y744517D02*
G01*
X2625597Y744517D01*
X2625597Y597197D01*
X2655570Y597197D01*
X1599600Y744601D02*
G01*
X2605199Y744601D01*
X2655498Y482099D02*
G01*
X2625498Y482099D01*
X2625498Y440601D01*
X2625498Y24803D02*
G01*
X2625498Y440601D01*
X1565501Y24203D02*
G01*
X1565501Y440001D01*
X1535770Y482102D02*
G01*
X1565501Y482102D01*
X1565501Y440001D01*
G75*
G01*
X2655499Y482100D02*
G03*
X2655499Y597101I0J57500D01*
G75*
G01*
X1535770Y597101D02*
G03*
X1535770Y482102I-382J-57500D01*

%LPD*%
M02*
