G04 Layer: TopLayer*
G04 EasyEDA v6.5.44, 2024-08-27 02:14:39*
G04 c69db122412b4c51b467f6eab680147d,f1a1d2977d3b4f1281c114c53eaa6542,10*
G04 Gerber Generator version 0.2*
G04 Scale: 100 percent, Rotated: No, Reflected: No *
G04 Dimensions in millimeters *
G04 leading zeros omitted , absolute positions ,4 integer and 5 decimal *
%FSLAX45Y45*%
%MOMM*%

%AMMACRO1*21,1,$1,$2,0,0,$3*%
%ADD10C,0.2540*%
%ADD11R,0.9000X0.8000*%
%ADD12O,0.5739892X2.4005031999999997*%
%ADD13R,1.3589X1.5000*%
%ADD14R,0.8000X0.9000*%
%ADD15R,1.5000X1.3589*%
%ADD16R,0.9500X1.1500*%
%ADD17R,0.8000X0.8640*%
%ADD18MACRO1,0.864X0.8065X90.0000*%
%ADD19MACRO1,0.864X0.8065X-90.0000*%
%ADD20O,2.4005031999999997X0.5739892*%
%ADD21O,0.5739892X2.0379944*%
%ADD22R,3.4000X1.1000*%
%ADD23MACRO1,10.5872X8.705X-90.0000*%
%ADD24R,1.6000X2.2000*%
%ADD25C,1.5240*%
%ADD26R,1.5000X1.5000*%
%ADD27C,1.5000*%
%ADD28MACRO1,2.0015X2.4994X-90.0000*%
%ADD29O,2.4999949999999997X1.9999959999999999*%
%ADD30O,1.7999964X2.5999948*%
%ADD31R,1.8000X2.6000*%
%ADD32O,0.9999979999999999X1.8999962*%
%ADD33C,0.6200*%
%ADD34C,0.0130*%

%LPD*%
D10*
X5054600Y2451100D02*
G01*
X5214010Y2291689D01*
X5214010Y2184400D01*
X2247900Y2882900D02*
G01*
X2540000Y2590800D01*
X2540000Y2260600D01*
X3784612Y2903016D02*
G01*
X4132783Y2903016D01*
X4419600Y2616200D01*
X4305300Y2501900D01*
X4305300Y1790700D01*
X4305300Y1790700D02*
G01*
X4165600Y1651000D01*
X4083189Y1651000D01*
X5201310Y1905000D02*
G01*
X5016500Y1905000D01*
X5600700Y1409700D02*
G01*
X5477840Y1286840D01*
X5477840Y1270000D01*
X5214010Y2184400D02*
G01*
X5417210Y2387600D01*
X5600700Y2387600D01*
X5201310Y1905000D02*
G01*
X5315610Y1790700D01*
X5778500Y1790700D01*
X5886602Y1898802D01*
X5886602Y1905000D01*
X5441289Y1905000D02*
G01*
X5453989Y1917700D01*
X5453989Y2184400D01*
X5746597Y1905000D02*
G01*
X5441289Y1905000D01*
X5441289Y1600200D02*
G01*
X5453989Y1612900D01*
X5733897Y1612900D01*
X5194300Y1739900D02*
G01*
X5301589Y1739900D01*
X5441289Y1600200D01*
X4794097Y1676400D02*
G01*
X4787900Y1682597D01*
X4787900Y1866900D01*
X5201310Y1600200D02*
G01*
X5139359Y1538249D01*
X5139359Y1270000D01*
X4934102Y1676400D02*
G01*
X5010302Y1600200D01*
X5201310Y1600200D01*
X1930400Y5189169D02*
G01*
X1930400Y4495800D01*
X2959100Y3467100D01*
X4432300Y3467100D01*
X4934102Y2965297D01*
X4934102Y1676400D01*
X5753100Y5092700D02*
G01*
X5829300Y5016500D01*
X5829300Y4902695D01*
X1803400Y5189169D02*
G01*
X1803400Y4737100D01*
X1600200Y4533900D01*
X4660900Y5461000D02*
G01*
X4661661Y5651500D01*
X1168400Y5189169D02*
G01*
X1206500Y5151069D01*
X1206500Y4876800D01*
X1803400Y6139230D02*
G01*
X1803400Y5803900D01*
X1930400Y5676900D01*
X2120900Y5676900D01*
X2908300Y4889500D01*
X2908300Y4760005D01*
X1676400Y6139230D02*
G01*
X1803400Y6139230D01*
X1422400Y6139230D02*
G01*
X1422400Y5905500D01*
X1752600Y5575300D01*
X2032000Y5575300D01*
X2654300Y4953000D01*
X2654300Y4000500D01*
X2667000Y4013200D01*
X2984500Y4013200D01*
X3035300Y4064000D01*
X3035300Y4206184D01*
X1295400Y6139230D02*
G01*
X1295400Y6273800D01*
X1422400Y6400800D01*
X1549400Y6273800D01*
X1549400Y6139230D01*
X1295400Y6139230D02*
G01*
X1295400Y5189169D01*
X3873500Y469900D02*
G01*
X3855897Y452297D01*
X3378200Y452297D01*
X4083189Y1651000D02*
G01*
X4013200Y1581010D01*
X4013200Y1524000D01*
X3943210Y1651000D02*
G01*
X3740010Y1447800D01*
X3708400Y1447800D01*
X3822700Y635000D02*
G01*
X3810000Y622300D01*
X3378200Y622300D01*
X3610940Y1651000D02*
G01*
X3708400Y1553540D01*
X3708400Y1447800D01*
X3149600Y1701800D02*
G01*
X3200400Y1651000D01*
X3272459Y1651000D01*
X2678836Y1828800D02*
G01*
X2742336Y1892300D01*
X2895600Y1892300D01*
X2678938Y1828800D02*
G01*
X2679700Y3302000D01*
X2590800Y3390900D01*
X2247900Y3390900D01*
X3721100Y292100D02*
G01*
X3711295Y282295D01*
X3378200Y282295D01*
X2528163Y1828800D02*
G01*
X2667000Y1689963D01*
X2667000Y1651000D01*
X2463800Y3111500D02*
G01*
X2438400Y3136900D01*
X2247900Y3136900D01*
X2235200Y1365402D02*
G01*
X2247900Y1378102D01*
X2247900Y1485900D01*
X2755900Y1435100D02*
G01*
X2800197Y1390802D01*
X2895600Y1390802D01*
X1676400Y2590800D02*
G01*
X1676400Y2463800D01*
X2552700Y1587500D01*
X2616200Y1587500D01*
X2245410Y864608D02*
G01*
X2082800Y1027219D01*
X2082800Y1155700D01*
X2082800Y1155700D02*
G01*
X2152497Y1225397D01*
X2235200Y1225397D01*
X1930400Y1447800D02*
G01*
X1848002Y1365402D01*
X1778000Y1365402D01*
X1676400Y1828800D02*
G01*
X1816100Y1689100D01*
X1816100Y1676400D01*
X1422400Y1828800D02*
G01*
X1676400Y1828800D01*
X2552700Y1378102D02*
G01*
X3534600Y2360002D01*
X3534600Y2653029D01*
X1168400Y1828800D02*
G01*
X1409700Y1587500D01*
X2438400Y1587500D01*
X2552700Y1473200D01*
X2552700Y1378102D01*
X1473200Y2006600D02*
G01*
X1422400Y1955800D01*
X1422400Y1828800D01*
X914400Y2590800D02*
G01*
X1130300Y2374900D01*
X1130300Y2184400D01*
X1168400Y1828800D02*
G01*
X1371600Y2032000D01*
X1371600Y2476500D01*
X1422400Y2527300D01*
X1422400Y2590800D01*
X1422400Y5189169D02*
G01*
X1422400Y3708400D01*
X2247900Y2882900D01*
X5473700Y1008989D02*
G01*
X5657189Y825500D01*
X6103569Y825500D01*
X5473700Y769010D02*
G01*
X5544210Y698500D01*
X6103569Y698500D01*
X5549900Y406400D02*
G01*
X5563463Y392836D01*
X5563463Y228600D01*
X6222136Y228600D02*
G01*
X6172200Y278536D01*
X6172200Y406400D01*
X5816600Y1295400D02*
G01*
X5854700Y1333500D01*
X6103569Y1333500D01*
X6071463Y228600D02*
G01*
X5930900Y369163D01*
X5930900Y482600D01*
X5206136Y228600D02*
G01*
X5320436Y114300D01*
X5957163Y114300D01*
X6071463Y228600D01*
X5727700Y1308100D02*
G01*
X5880100Y1460500D01*
X6103569Y1460500D01*
X5714136Y228600D02*
G01*
X5842000Y356463D01*
X5842000Y482600D01*
X5055468Y228600D02*
G01*
X5398368Y571500D01*
X6103569Y571500D01*
X3378200Y962304D02*
G01*
X3812895Y1397000D01*
X3835400Y1397000D01*
X3886200Y1447800D01*
X4737100Y1447800D01*
X4889500Y1295400D01*
X4889500Y203200D01*
X4991100Y101600D01*
X5130800Y101600D01*
X5206136Y176936D01*
X5206136Y228600D01*
X4304436Y5651500D02*
G01*
X5282336Y4673600D01*
X5930900Y4673600D01*
X6083300Y4826000D01*
X6083300Y4901704D01*
X4140200Y5994400D02*
G01*
X4153763Y6007963D01*
X4153763Y6159500D01*
X4304436Y5651500D02*
G01*
X4368800Y5715863D01*
X4368800Y5791200D01*
X4812436Y6159500D02*
G01*
X4724400Y6071463D01*
X4724400Y5981700D01*
X4635500Y5892800D01*
X4241800Y5892800D01*
X4153763Y5804763D01*
X4153763Y5651500D01*
X4812436Y6159500D02*
G01*
X4837341Y6134595D01*
X5575300Y6134595D01*
X5829300Y6134607D02*
G01*
X5715000Y6020307D01*
X5715000Y5869939D01*
X6083300Y6133604D02*
G01*
X5778995Y5829300D01*
X5245100Y5829300D01*
X5003800Y5588000D01*
X5003800Y5410200D01*
X5270500Y5143500D01*
X5778500Y5143500D01*
X5829300Y5092700D01*
X5829300Y4902695D01*
X3378200Y452297D02*
G01*
X3306902Y452297D01*
X3219983Y539216D01*
X3156483Y539216D01*
X2806700Y889000D01*
X2782308Y864608D01*
X2245410Y864608D01*
X3378200Y962304D02*
G01*
X3089706Y1250797D01*
X2895600Y1250797D01*
X2552700Y1238097D02*
G01*
X2565400Y1250797D01*
X2895600Y1250797D01*
X2235200Y1365402D02*
G01*
X2317597Y1365402D01*
X2444902Y1238097D01*
X2552700Y1238097D01*
X1778000Y1225397D02*
G01*
X1898497Y1225397D01*
X2044700Y1371600D01*
X2050897Y1365402D01*
X2235200Y1365402D01*
X1820392Y864608D02*
G01*
X1778000Y907000D01*
X1778000Y1225397D01*
D11*
G01*
X1778000Y1365402D03*
G01*
X1778000Y1225397D03*
G01*
X2235200Y1365402D03*
G01*
X2235200Y1225397D03*
D12*
G01*
X1168400Y5189169D03*
G01*
X1295400Y5189169D03*
G01*
X1422400Y5189169D03*
G01*
X1549400Y5189169D03*
G01*
X1676400Y5189169D03*
G01*
X1803400Y5189169D03*
G01*
X1930400Y5189169D03*
G01*
X2057400Y5189169D03*
G01*
X1168400Y6139230D03*
G01*
X1295400Y6139230D03*
G01*
X1422400Y6139230D03*
G01*
X1549400Y6139230D03*
G01*
X1676400Y6139230D03*
G01*
X1803400Y6139230D03*
G01*
X1930400Y6139230D03*
G01*
X2057400Y6139230D03*
D13*
G01*
X5473700Y769010D03*
G01*
X5473700Y1008989D03*
D14*
G01*
X5035702Y4559300D03*
G01*
X4895697Y4559300D03*
D15*
G01*
X5214010Y2184400D03*
G01*
X5453989Y2184400D03*
G01*
X5201310Y1905000D03*
G01*
X5441289Y1905000D03*
D14*
G01*
X4934102Y1676400D03*
G01*
X4794097Y1676400D03*
D15*
G01*
X5201310Y1600200D03*
G01*
X5441289Y1600200D03*
D14*
G01*
X6610502Y1739900D03*
G01*
X6470497Y1739900D03*
G01*
X5886602Y1905000D03*
G01*
X5746597Y1905000D03*
G01*
X5873902Y1612900D03*
G01*
X5733897Y1612900D03*
D16*
G01*
X3610940Y1651000D03*
G01*
X3272459Y1651000D03*
G01*
X5477840Y1270000D03*
G01*
X5139359Y1270000D03*
G01*
X7420940Y254000D03*
G01*
X7082459Y254000D03*
D17*
G01*
X3943210Y1651000D03*
G01*
X4083189Y1651000D03*
D18*
G01*
X2678824Y1828800D03*
G01*
X2528175Y1828800D03*
G01*
X4304424Y6159500D03*
G01*
X4153775Y6159500D03*
G01*
X4812424Y6159500D03*
G01*
X4661775Y6159500D03*
G01*
X4304424Y5651500D03*
G01*
X4153775Y5651500D03*
G01*
X4812424Y5651500D03*
G01*
X4661775Y5651500D03*
G01*
X7606424Y1346200D03*
G01*
X7455775Y1346200D03*
D19*
G01*
X6554075Y342900D03*
G01*
X6704724Y342900D03*
D18*
G01*
X5206124Y228600D03*
G01*
X5055475Y228600D03*
G01*
X5714124Y228600D03*
G01*
X5563475Y228600D03*
G01*
X6222124Y228600D03*
G01*
X6071475Y228600D03*
D20*
G01*
X6103569Y1460500D03*
G01*
X6103569Y1333500D03*
G01*
X6103569Y1206500D03*
G01*
X6103569Y1079500D03*
G01*
X6103569Y952500D03*
G01*
X6103569Y825500D03*
G01*
X6103569Y698500D03*
G01*
X6103569Y571500D03*
G01*
X7053630Y1460500D03*
G01*
X7053630Y1333500D03*
G01*
X7053630Y1206500D03*
G01*
X7053630Y1079500D03*
G01*
X7053630Y952500D03*
G01*
X7053630Y825500D03*
G01*
X7053630Y698500D03*
G01*
X7053630Y571500D03*
D21*
G01*
X2908300Y4206184D03*
G01*
X3035300Y4206184D03*
G01*
X3162300Y4206184D03*
G01*
X3289300Y4206184D03*
G01*
X3416300Y4206184D03*
G01*
X3543300Y4206184D03*
G01*
X3670300Y4206184D03*
G01*
X2908300Y4760005D03*
G01*
X3035300Y4760005D03*
G01*
X3162300Y4760005D03*
G01*
X3289300Y4760005D03*
G01*
X3416300Y4760005D03*
G01*
X3543300Y4760005D03*
G01*
X3670300Y4760005D03*
D22*
G01*
X3378200Y962304D03*
G01*
X3378200Y792302D03*
G01*
X3378200Y622300D03*
G01*
X3378200Y452297D03*
G01*
X3378200Y282295D03*
D23*
G01*
X4368789Y622300D03*
D11*
G01*
X2552700Y1378102D03*
G01*
X2552700Y1238097D03*
G01*
X2895600Y1250797D03*
G01*
X2895600Y1390802D03*
D24*
G01*
X2245410Y864608D03*
G01*
X1820392Y864608D03*
D25*
G01*
X3784612Y2903016D03*
G01*
X4034599Y2653029D03*
G01*
X3534600Y2653029D03*
D26*
G01*
X914400Y1828800D03*
D27*
G01*
X1168400Y1828800D03*
G01*
X1422400Y1828800D03*
G01*
X1676400Y1828800D03*
G01*
X914400Y2590800D03*
G01*
X1168400Y2590800D03*
G01*
X1422400Y2590800D03*
G01*
X1676400Y2590800D03*
D28*
G01*
X2247900Y3390900D03*
D29*
G01*
X2247900Y2882900D03*
G01*
X2247900Y3136900D03*
D30*
G01*
X5829300Y6134595D03*
G01*
X6083300Y6133604D03*
D31*
G01*
X5575300Y6134595D03*
D30*
G01*
X5829300Y4902695D03*
G01*
X6083300Y4901704D03*
D31*
G01*
X5575300Y4902695D03*
D30*
G01*
X5829300Y5499595D03*
G01*
X6083300Y5498604D03*
D31*
G01*
X5575300Y5499595D03*
D30*
G01*
X5829300Y4280395D03*
G01*
X6083300Y4279404D03*
D31*
G01*
X5575300Y4280395D03*
D32*
G01*
X1451000Y354601D03*
G01*
X2739999Y354601D03*
D33*
G01*
X5715000Y5885561D03*
G01*
X4304436Y5651500D03*
G01*
X4368800Y5791200D03*
G01*
X4140200Y5994400D03*
G01*
X5714136Y228600D03*
G01*
X5842000Y482600D03*
G01*
X5727700Y1308100D03*
G01*
X5930900Y482600D03*
G01*
X5816600Y1295400D03*
G01*
X6172200Y406400D03*
G01*
X5549900Y406400D03*
G01*
X1130300Y2184400D03*
G01*
X1473200Y2006600D03*
G01*
X1816100Y1676400D03*
G01*
X1930400Y1447800D03*
G01*
X2082800Y1155700D03*
G01*
X2616200Y1587500D03*
G01*
X2755900Y1435100D03*
G01*
X2247900Y1485900D03*
G01*
X2463800Y3111500D03*
G01*
X2667000Y1651000D03*
G01*
X3721100Y292100D03*
G01*
X2895600Y1892300D03*
G01*
X3149600Y1701800D03*
G01*
X3708400Y1447800D03*
G01*
X3822700Y635000D03*
G01*
X4013200Y1524000D03*
G01*
X3873500Y469900D03*
G01*
X1206500Y4876800D03*
G01*
X4660900Y5461000D03*
G01*
X1600200Y4533900D03*
G01*
X5753100Y5092700D03*
G01*
X4787900Y1866900D03*
G01*
X5194300Y1739900D03*
G01*
X5600700Y2387600D03*
G01*
X5600700Y1409700D03*
G01*
X5016500Y1905000D03*
G01*
X4305300Y1790700D03*
G01*
X2540000Y2260600D03*
G01*
X5054600Y2451100D03*
M02*
