G04 Layer: TopPasteMaskLayer*
G04 EasyEDA v6.5.44, 2024-08-27 14:32:38*
G04 23fd9cafee9249e98fa7b3ee852e57a5,f1a1d2977d3b4f1281c114c53eaa6542,10*
G04 Gerber Generator version 0.2*
G04 Scale: 100 percent, Rotated: No, Reflected: No *
G04 Dimensions in millimeters *
G04 leading zeros omitted , absolute positions ,4 integer and 5 decimal *
%FSLAX45Y45*%
%MOMM*%

%AMMACRO1*21,1,$1,$2,0,0,$3*%
%ADD10R,0.9000X0.8000*%
%ADD11O,0.5739892X2.4005031999999997*%
%ADD12R,1.3589X1.5000*%
%ADD13R,0.8000X0.9000*%
%ADD14R,1.5000X1.3589*%
%ADD15R,0.9500X1.1500*%
%ADD16O,2.4005031999999997X0.5739892*%
%ADD17O,0.5739892X2.0379944*%
%ADD18R,3.4000X1.1000*%
%ADD19MACRO1,10.5872X8.705X-90.0000*%
%ADD20C,0.0106*%

%LPD*%
G36*
X3910279Y1694688D02*
G01*
X3903878Y1688287D01*
X3903878Y1614678D01*
X3910279Y1608277D01*
X3960622Y1608277D01*
X3988054Y1637639D01*
X3988054Y1665274D01*
X3960622Y1694688D01*
G37*
G36*
X4066997Y1695805D02*
G01*
X4039615Y1666443D01*
X4039615Y1638757D01*
X4066997Y1609394D01*
X4117340Y1609394D01*
X4123740Y1615795D01*
X4123740Y1689404D01*
X4117340Y1695805D01*
G37*
G36*
X2643022Y1873808D02*
G01*
X2637993Y1868779D01*
X2637993Y1846021D01*
X2674975Y1846021D01*
X2674975Y1813001D01*
X2637993Y1813001D01*
X2637993Y1788820D01*
X2643022Y1783791D01*
X2722981Y1783791D01*
X2728010Y1788820D01*
X2728010Y1868779D01*
X2722981Y1873808D01*
G37*
G36*
X2484018Y1873808D02*
G01*
X2478989Y1868779D01*
X2478989Y1788820D01*
X2484018Y1783791D01*
X2563977Y1783791D01*
X2569006Y1788820D01*
X2569006Y1811578D01*
X2532024Y1811578D01*
X2532024Y1844598D01*
X2569006Y1844598D01*
X2569006Y1868779D01*
X2563977Y1873808D01*
G37*
G36*
X4268622Y6204508D02*
G01*
X4263593Y6199479D01*
X4263593Y6176721D01*
X4300575Y6176721D01*
X4300575Y6143701D01*
X4263593Y6143701D01*
X4263593Y6119520D01*
X4268622Y6114491D01*
X4348581Y6114491D01*
X4353610Y6119520D01*
X4353610Y6199479D01*
X4348581Y6204508D01*
G37*
G36*
X4109618Y6204508D02*
G01*
X4104589Y6199479D01*
X4104589Y6119520D01*
X4109618Y6114491D01*
X4189577Y6114491D01*
X4194606Y6119520D01*
X4194606Y6142278D01*
X4157624Y6142278D01*
X4157624Y6175298D01*
X4194606Y6175298D01*
X4194606Y6199479D01*
X4189577Y6204508D01*
G37*
G36*
X4776622Y6204508D02*
G01*
X4771593Y6199479D01*
X4771593Y6176721D01*
X4808575Y6176721D01*
X4808575Y6143701D01*
X4771593Y6143701D01*
X4771593Y6119520D01*
X4776622Y6114491D01*
X4856581Y6114491D01*
X4861610Y6119520D01*
X4861610Y6199479D01*
X4856581Y6204508D01*
G37*
G36*
X4617618Y6204508D02*
G01*
X4612589Y6199479D01*
X4612589Y6119520D01*
X4617618Y6114491D01*
X4697577Y6114491D01*
X4702606Y6119520D01*
X4702606Y6142278D01*
X4665624Y6142278D01*
X4665624Y6175298D01*
X4702606Y6175298D01*
X4702606Y6199479D01*
X4697577Y6204508D01*
G37*
G36*
X4268622Y5696508D02*
G01*
X4263593Y5691479D01*
X4263593Y5668721D01*
X4300575Y5668721D01*
X4300575Y5635701D01*
X4263593Y5635701D01*
X4263593Y5611520D01*
X4268622Y5606491D01*
X4348581Y5606491D01*
X4353610Y5611520D01*
X4353610Y5691479D01*
X4348581Y5696508D01*
G37*
G36*
X4109618Y5696508D02*
G01*
X4104589Y5691479D01*
X4104589Y5611520D01*
X4109618Y5606491D01*
X4189577Y5606491D01*
X4194606Y5611520D01*
X4194606Y5634278D01*
X4157624Y5634278D01*
X4157624Y5667298D01*
X4194606Y5667298D01*
X4194606Y5691479D01*
X4189577Y5696508D01*
G37*
G36*
X4776622Y5696508D02*
G01*
X4771593Y5691479D01*
X4771593Y5668721D01*
X4808575Y5668721D01*
X4808575Y5635701D01*
X4771593Y5635701D01*
X4771593Y5611520D01*
X4776622Y5606491D01*
X4856581Y5606491D01*
X4861610Y5611520D01*
X4861610Y5691479D01*
X4856581Y5696508D01*
G37*
G36*
X4617618Y5696508D02*
G01*
X4612589Y5691479D01*
X4612589Y5611520D01*
X4617618Y5606491D01*
X4697577Y5606491D01*
X4702606Y5611520D01*
X4702606Y5634278D01*
X4665624Y5634278D01*
X4665624Y5667298D01*
X4702606Y5667298D01*
X4702606Y5691479D01*
X4697577Y5696508D01*
G37*
G36*
X7570622Y1391208D02*
G01*
X7565593Y1386179D01*
X7565593Y1363421D01*
X7602575Y1363421D01*
X7602575Y1330401D01*
X7565593Y1330401D01*
X7565593Y1306220D01*
X7570622Y1301191D01*
X7650581Y1301191D01*
X7655610Y1306220D01*
X7655610Y1386179D01*
X7650581Y1391208D01*
G37*
G36*
X7411618Y1391208D02*
G01*
X7406589Y1386179D01*
X7406589Y1306220D01*
X7411618Y1301191D01*
X7491577Y1301191D01*
X7496606Y1306220D01*
X7496606Y1328978D01*
X7459624Y1328978D01*
X7459624Y1361998D01*
X7496606Y1361998D01*
X7496606Y1386179D01*
X7491577Y1391208D01*
G37*
G36*
X6509918Y387908D02*
G01*
X6504889Y382879D01*
X6504889Y302920D01*
X6509918Y297891D01*
X6589877Y297891D01*
X6594906Y302920D01*
X6594906Y325678D01*
X6557924Y325678D01*
X6557924Y358698D01*
X6594906Y358698D01*
X6594906Y382879D01*
X6589877Y387908D01*
G37*
G36*
X6668922Y387908D02*
G01*
X6663893Y382879D01*
X6663893Y360121D01*
X6700875Y360121D01*
X6700875Y327101D01*
X6663893Y327101D01*
X6663893Y302920D01*
X6668922Y297891D01*
X6748881Y297891D01*
X6753910Y302920D01*
X6753910Y382879D01*
X6748881Y387908D01*
G37*
G36*
X5170322Y273608D02*
G01*
X5165293Y268579D01*
X5165293Y245821D01*
X5202275Y245821D01*
X5202275Y212801D01*
X5165293Y212801D01*
X5165293Y188620D01*
X5170322Y183591D01*
X5250281Y183591D01*
X5255310Y188620D01*
X5255310Y268579D01*
X5250281Y273608D01*
G37*
G36*
X5011318Y273608D02*
G01*
X5006289Y268579D01*
X5006289Y188620D01*
X5011318Y183591D01*
X5091277Y183591D01*
X5096306Y188620D01*
X5096306Y211378D01*
X5059324Y211378D01*
X5059324Y244398D01*
X5096306Y244398D01*
X5096306Y268579D01*
X5091277Y273608D01*
G37*
G36*
X5678322Y273608D02*
G01*
X5673293Y268579D01*
X5673293Y245821D01*
X5710275Y245821D01*
X5710275Y212801D01*
X5673293Y212801D01*
X5673293Y188620D01*
X5678322Y183591D01*
X5758281Y183591D01*
X5763310Y188620D01*
X5763310Y268579D01*
X5758281Y273608D01*
G37*
G36*
X5519318Y273608D02*
G01*
X5514289Y268579D01*
X5514289Y188620D01*
X5519318Y183591D01*
X5599277Y183591D01*
X5604306Y188620D01*
X5604306Y211378D01*
X5567324Y211378D01*
X5567324Y244398D01*
X5604306Y244398D01*
X5604306Y268579D01*
X5599277Y273608D01*
G37*
G36*
X6186322Y273608D02*
G01*
X6181293Y268579D01*
X6181293Y245821D01*
X6218275Y245821D01*
X6218275Y212801D01*
X6181293Y212801D01*
X6181293Y188620D01*
X6186322Y183591D01*
X6266281Y183591D01*
X6271310Y188620D01*
X6271310Y268579D01*
X6266281Y273608D01*
G37*
G36*
X6027318Y273608D02*
G01*
X6022289Y268579D01*
X6022289Y188620D01*
X6027318Y183591D01*
X6107277Y183591D01*
X6112306Y188620D01*
X6112306Y211378D01*
X6075324Y211378D01*
X6075324Y244398D01*
X6112306Y244398D01*
X6112306Y268579D01*
X6107277Y273608D01*
G37*
G36*
X2165400Y974598D02*
G01*
X2165400Y754583D01*
X2325420Y754583D01*
X2325420Y974598D01*
G37*
G36*
X1740407Y974598D02*
G01*
X1740407Y754583D01*
X1900377Y754583D01*
X1900377Y974598D01*
G37*
G36*
X2738729Y449580D02*
G01*
X2733802Y449224D01*
X2728874Y448360D01*
X2724099Y446989D01*
X2719425Y445160D01*
X2715006Y442925D01*
X2710789Y440182D01*
X2706928Y437083D01*
X2703322Y433628D01*
X2700121Y429768D01*
X2697327Y425653D01*
X2694940Y421284D01*
X2693009Y416712D01*
X2691536Y411937D01*
X2690571Y407060D01*
X2690063Y402082D01*
X2690012Y309575D01*
X2690266Y304596D01*
X2690977Y299669D01*
X2692247Y294843D01*
X2693924Y290169D01*
X2696108Y285699D01*
X2698699Y281432D01*
X2701696Y277469D01*
X2705100Y273812D01*
X2708808Y270510D01*
X2712872Y267614D01*
X2717190Y265125D01*
X2721711Y263042D01*
X2726436Y261467D01*
X2731312Y260350D01*
X2736240Y259740D01*
X2741269Y259638D01*
X2746197Y259994D01*
X2751124Y260858D01*
X2755900Y262178D01*
X2760573Y264007D01*
X2764993Y266293D01*
X2769209Y268986D01*
X2773070Y272135D01*
X2776677Y275590D01*
X2779877Y279400D01*
X2782671Y283514D01*
X2785059Y287883D01*
X2786989Y292506D01*
X2788462Y297281D01*
X2789428Y302158D01*
X2789936Y307086D01*
X2789986Y399592D01*
X2789732Y404571D01*
X2789021Y409498D01*
X2787802Y414324D01*
X2786075Y418998D01*
X2783890Y423519D01*
X2781300Y427786D01*
X2778302Y431749D01*
X2774899Y435406D01*
X2771190Y438708D01*
X2767126Y441604D01*
X2762808Y444093D01*
X2758287Y446125D01*
X2753563Y447751D01*
X2748686Y448818D01*
X2743758Y449478D01*
G37*
G36*
X1449730Y449580D02*
G01*
X1444802Y449224D01*
X1439875Y448360D01*
X1435100Y446989D01*
X1430426Y445160D01*
X1426006Y442925D01*
X1421790Y440182D01*
X1417929Y437083D01*
X1414322Y433628D01*
X1411122Y429768D01*
X1408328Y425653D01*
X1405940Y421284D01*
X1404010Y416712D01*
X1402537Y411937D01*
X1401572Y407060D01*
X1401064Y402082D01*
X1401013Y309575D01*
X1401267Y304596D01*
X1401978Y299669D01*
X1403197Y294843D01*
X1404924Y290169D01*
X1407109Y285699D01*
X1409700Y281432D01*
X1412697Y277469D01*
X1416100Y273812D01*
X1419809Y270510D01*
X1423873Y267614D01*
X1428191Y265125D01*
X1432712Y263042D01*
X1437436Y261467D01*
X1442313Y260350D01*
X1447241Y259740D01*
X1452270Y259638D01*
X1457198Y259994D01*
X1462125Y260858D01*
X1466900Y262178D01*
X1471574Y264007D01*
X1475994Y266293D01*
X1480210Y268986D01*
X1484071Y272135D01*
X1487627Y275590D01*
X1490878Y279400D01*
X1493672Y283514D01*
X1496060Y287883D01*
X1497990Y292506D01*
X1499463Y297281D01*
X1500428Y302158D01*
X1500936Y307086D01*
X1500987Y399592D01*
X1500733Y404571D01*
X1500022Y409498D01*
X1498803Y414324D01*
X1497076Y418998D01*
X1494891Y423519D01*
X1492300Y427786D01*
X1489303Y431749D01*
X1485900Y435406D01*
X1482191Y438708D01*
X1478127Y441604D01*
X1473809Y444093D01*
X1469288Y446125D01*
X1464564Y447751D01*
X1459687Y448818D01*
X1454759Y449478D01*
G37*
D10*
G01*
X1778000Y1365402D03*
G01*
X1778000Y1225397D03*
G01*
X2235200Y1365402D03*
G01*
X2235200Y1225397D03*
D11*
G01*
X1168400Y5189169D03*
G01*
X1295400Y5189169D03*
G01*
X1422400Y5189169D03*
G01*
X1549400Y5189169D03*
G01*
X1676400Y5189169D03*
G01*
X1803400Y5189169D03*
G01*
X1930400Y5189169D03*
G01*
X2057400Y5189169D03*
G01*
X1168400Y6139230D03*
G01*
X1295400Y6139230D03*
G01*
X1422400Y6139230D03*
G01*
X1549400Y6139230D03*
G01*
X1676400Y6139230D03*
G01*
X1803400Y6139230D03*
G01*
X1930400Y6139230D03*
G01*
X2057400Y6139230D03*
D12*
G01*
X5473700Y769010D03*
G01*
X5473700Y1008989D03*
D13*
G01*
X5035702Y4559300D03*
G01*
X4895697Y4559300D03*
D14*
G01*
X5214010Y2184400D03*
G01*
X5453989Y2184400D03*
G01*
X5201310Y1905000D03*
G01*
X5441289Y1905000D03*
D13*
G01*
X4934102Y1676400D03*
G01*
X4794097Y1676400D03*
D14*
G01*
X5201310Y1600200D03*
G01*
X5441289Y1600200D03*
D13*
G01*
X6610502Y1739900D03*
G01*
X6470497Y1739900D03*
G01*
X5886602Y1905000D03*
G01*
X5746597Y1905000D03*
G01*
X5873902Y1612900D03*
G01*
X5733897Y1612900D03*
D15*
G01*
X3610940Y1651000D03*
G01*
X3272459Y1651000D03*
G01*
X5477840Y1270000D03*
G01*
X5139359Y1270000D03*
G01*
X7420940Y254000D03*
G01*
X7082459Y254000D03*
D16*
G01*
X6103569Y1460500D03*
G01*
X6103569Y1333500D03*
G01*
X6103569Y1206500D03*
G01*
X6103569Y1079500D03*
G01*
X6103569Y952500D03*
G01*
X6103569Y825500D03*
G01*
X6103569Y698500D03*
G01*
X6103569Y571500D03*
G01*
X7053630Y1460500D03*
G01*
X7053630Y1333500D03*
G01*
X7053630Y1206500D03*
G01*
X7053630Y1079500D03*
G01*
X7053630Y952500D03*
G01*
X7053630Y825500D03*
G01*
X7053630Y698500D03*
G01*
X7053630Y571500D03*
D17*
G01*
X2908300Y4206189D03*
G01*
X3035300Y4206189D03*
G01*
X3162300Y4206189D03*
G01*
X3289300Y4206189D03*
G01*
X3416300Y4206189D03*
G01*
X3543300Y4206189D03*
G01*
X3670300Y4206189D03*
G01*
X2908300Y4760010D03*
G01*
X3035300Y4760010D03*
G01*
X3162300Y4760010D03*
G01*
X3289300Y4760010D03*
G01*
X3416300Y4760010D03*
G01*
X3543300Y4760010D03*
G01*
X3670300Y4760010D03*
D18*
G01*
X3378200Y962304D03*
G01*
X3378200Y792302D03*
G01*
X3378200Y622300D03*
G01*
X3378200Y452297D03*
G01*
X3378200Y282295D03*
D19*
G01*
X4368789Y622300D03*
D10*
G01*
X2552700Y1378102D03*
G01*
X2552700Y1238097D03*
G01*
X2895600Y1250797D03*
G01*
X2895600Y1390802D03*
M02*
