G04 Layer: TopSilkscreenLayer*
G04 EasyEDA v6.5.44, 2024-08-27 01:27:02*
G04 f634033934e649328074ea424b2ba572,f1a1d2977d3b4f1281c114c53eaa6542,10*
G04 Gerber Generator version 0.2*
G04 Scale: 100 percent, Rotated: No, Reflected: No *
G04 Dimensions in millimeters *
G04 leading zeros omitted , absolute positions ,4 integer and 5 decimal *
%FSLAX45Y45*%
%MOMM*%

%ADD10C,0.1524*%
%ADD11C,0.2540*%
%ADD12C,0.2000*%
%ADD13C,0.0800*%
%ADD14C,0.1520*%
%ADD15C,0.1520*%
%ADD16C,0.2500*%
%ADD17C,0.6000*%
%ADD18C,0.4000*%
%ADD19C,0.3000*%
%ADD20C,0.0163*%

%LPD*%
D10*
X2225126Y1472692D02*
G01*
X2219792Y1483105D01*
X2209378Y1493520D01*
X2199218Y1498600D01*
X2178390Y1498600D01*
X2167976Y1493520D01*
X2157562Y1483105D01*
X2152228Y1472692D01*
X2147148Y1456944D01*
X2147148Y1431036D01*
X2152228Y1415542D01*
X2157562Y1405128D01*
X2167976Y1394713D01*
X2178390Y1389634D01*
X2199218Y1389634D01*
X2209378Y1394713D01*
X2219792Y1405128D01*
X2225126Y1415542D01*
X2259416Y1477771D02*
G01*
X2269830Y1483105D01*
X2285324Y1498600D01*
X2285324Y1389634D01*
X3241126Y1472692D02*
G01*
X3235792Y1483105D01*
X3225378Y1493520D01*
X3215218Y1498600D01*
X3194390Y1498600D01*
X3183976Y1493520D01*
X3173562Y1483105D01*
X3168228Y1472692D01*
X3163148Y1456944D01*
X3163148Y1431036D01*
X3168228Y1415542D01*
X3173562Y1405128D01*
X3183976Y1394713D01*
X3194390Y1389634D01*
X3215218Y1389634D01*
X3225378Y1394713D01*
X3235792Y1405128D01*
X3241126Y1415542D01*
X3285830Y1498600D02*
G01*
X3342980Y1498600D01*
X3311738Y1456944D01*
X3327232Y1456944D01*
X3337646Y1451863D01*
X3342980Y1446784D01*
X3348060Y1431036D01*
X3348060Y1420621D01*
X3342980Y1405128D01*
X3332566Y1394713D01*
X3316818Y1389634D01*
X3301324Y1389634D01*
X3285830Y1394713D01*
X3280496Y1399794D01*
X3275416Y1410207D01*
X3775900Y3276600D02*
G01*
X3775900Y3167634D01*
X3775900Y3276600D02*
G01*
X3822636Y3276600D01*
X3838130Y3271520D01*
X3843464Y3266186D01*
X3848544Y3255771D01*
X3848544Y3245357D01*
X3843464Y3234944D01*
X3838130Y3229863D01*
X3822636Y3224784D01*
X3775900Y3224784D01*
X3812222Y3224784D02*
G01*
X3848544Y3167634D01*
X3882834Y3276600D02*
G01*
X3882834Y3167634D01*
X3882834Y3276600D02*
G01*
X3929570Y3276600D01*
X3945318Y3271520D01*
X3950398Y3266186D01*
X3955732Y3255771D01*
X3955732Y3240278D01*
X3950398Y3229863D01*
X3945318Y3224784D01*
X3929570Y3219450D01*
X3882834Y3219450D01*
X3990022Y3255771D02*
G01*
X4000436Y3261105D01*
X4015930Y3276600D01*
X4015930Y3167634D01*
X1587500Y6414515D02*
G01*
X1587500Y6336537D01*
X1592579Y6321044D01*
X1602994Y6310629D01*
X1618742Y6305550D01*
X1629155Y6305550D01*
X1644650Y6310629D01*
X1655063Y6321044D01*
X1660144Y6336537D01*
X1660144Y6414515D01*
X1694434Y6393687D02*
G01*
X1704847Y6399021D01*
X1720595Y6414515D01*
X1720595Y6305550D01*
X1289888Y1498600D02*
G01*
X1289888Y1420621D01*
X1294968Y1405128D01*
X1305382Y1394713D01*
X1321130Y1389634D01*
X1331544Y1389634D01*
X1347038Y1394713D01*
X1357452Y1405128D01*
X1362532Y1420621D01*
X1362532Y1498600D01*
X1407236Y1498600D02*
G01*
X1464386Y1498600D01*
X1433398Y1456944D01*
X1448892Y1456944D01*
X1459306Y1451863D01*
X1464386Y1446784D01*
X1469720Y1431036D01*
X1469720Y1420621D01*
X1464386Y1405128D01*
X1453972Y1394713D01*
X1438478Y1389634D01*
X1422984Y1389634D01*
X1407236Y1394713D01*
X1402156Y1399794D01*
X1396822Y1410207D01*
X9967340Y3571747D02*
G01*
X9962006Y3582162D01*
X9951593Y3592576D01*
X9941433Y3597655D01*
X9920604Y3597655D01*
X9910190Y3592576D01*
X9899777Y3582162D01*
X9894443Y3571747D01*
X9889363Y3556000D01*
X9889363Y3530092D01*
X9894443Y3514597D01*
X9899777Y3504184D01*
X9910190Y3493770D01*
X9920604Y3488689D01*
X9941433Y3488689D01*
X9951593Y3493770D01*
X9962006Y3504184D01*
X9967340Y3514597D01*
X10006711Y3571747D02*
G01*
X10006711Y3576828D01*
X10012045Y3587242D01*
X10017125Y3592576D01*
X10027538Y3597655D01*
X10048366Y3597655D01*
X10058781Y3592576D01*
X10063861Y3587242D01*
X10069195Y3576828D01*
X10069195Y3566413D01*
X10063861Y3556000D01*
X10053447Y3540505D01*
X10001631Y3488689D01*
X10074275Y3488689D01*
X10657077Y3556507D02*
G01*
X10651743Y3566921D01*
X10641329Y3577336D01*
X10631170Y3582415D01*
X10610341Y3582415D01*
X10599927Y3577336D01*
X10589513Y3566921D01*
X10584179Y3556507D01*
X10579100Y3540760D01*
X10579100Y3514852D01*
X10584179Y3499357D01*
X10589513Y3488944D01*
X10599927Y3478529D01*
X10610341Y3473450D01*
X10631170Y3473450D01*
X10641329Y3478529D01*
X10651743Y3488944D01*
X10657077Y3499357D01*
X10753597Y3566921D02*
G01*
X10748518Y3577336D01*
X10732770Y3582415D01*
X10722609Y3582415D01*
X10706861Y3577336D01*
X10696447Y3561587D01*
X10691368Y3535679D01*
X10691368Y3509771D01*
X10696447Y3488944D01*
X10706861Y3478529D01*
X10722609Y3473450D01*
X10727690Y3473450D01*
X10743184Y3478529D01*
X10753597Y3488944D01*
X10758931Y3504437D01*
X10758931Y3509771D01*
X10753597Y3525265D01*
X10743184Y3535679D01*
X10727690Y3540760D01*
X10722609Y3540760D01*
X10706861Y3535679D01*
X10696447Y3525265D01*
X10691368Y3509771D01*
X9967340Y3063747D02*
G01*
X9962006Y3074162D01*
X9951593Y3084576D01*
X9941433Y3089655D01*
X9920604Y3089655D01*
X9910190Y3084576D01*
X9899777Y3074162D01*
X9894443Y3063747D01*
X9889363Y3048000D01*
X9889363Y3022092D01*
X9894443Y3006597D01*
X9899777Y2996184D01*
X9910190Y2985770D01*
X9920604Y2980689D01*
X9941433Y2980689D01*
X9951593Y2985770D01*
X9962006Y2996184D01*
X9967340Y3006597D01*
X10074275Y3089655D02*
G01*
X10022459Y2980689D01*
X10001631Y3089655D02*
G01*
X10074275Y3089655D01*
X9967340Y2555747D02*
G01*
X9962006Y2566162D01*
X9951593Y2576576D01*
X9941433Y2581655D01*
X9920604Y2581655D01*
X9910190Y2576576D01*
X9899777Y2566162D01*
X9894443Y2555747D01*
X9889363Y2540000D01*
X9889363Y2514092D01*
X9894443Y2498597D01*
X9899777Y2488184D01*
X9910190Y2477770D01*
X9920604Y2472689D01*
X9941433Y2472689D01*
X9951593Y2477770D01*
X9962006Y2488184D01*
X9967340Y2498597D01*
X10027538Y2581655D02*
G01*
X10012045Y2576576D01*
X10006711Y2566162D01*
X10006711Y2555747D01*
X10012045Y2545334D01*
X10022459Y2540000D01*
X10043033Y2534920D01*
X10058781Y2529839D01*
X10069195Y2519426D01*
X10074275Y2509012D01*
X10074275Y2493263D01*
X10069195Y2482850D01*
X10063861Y2477770D01*
X10048366Y2472689D01*
X10027538Y2472689D01*
X10012045Y2477770D01*
X10006711Y2482850D01*
X10001631Y2493263D01*
X10001631Y2509012D01*
X10006711Y2519426D01*
X10017125Y2529839D01*
X10032872Y2534920D01*
X10053447Y2540000D01*
X10063861Y2545334D01*
X10069195Y2555747D01*
X10069195Y2566162D01*
X10063861Y2576576D01*
X10048366Y2581655D01*
X10027538Y2581655D01*
X10657077Y3048507D02*
G01*
X10651743Y3058921D01*
X10641329Y3069336D01*
X10631170Y3074415D01*
X10610341Y3074415D01*
X10599927Y3069336D01*
X10589513Y3058921D01*
X10584179Y3048507D01*
X10579100Y3032760D01*
X10579100Y3006852D01*
X10584179Y2991357D01*
X10589513Y2980944D01*
X10599927Y2970529D01*
X10610341Y2965450D01*
X10631170Y2965450D01*
X10641329Y2970529D01*
X10651743Y2980944D01*
X10657077Y2991357D01*
X10758931Y3038094D02*
G01*
X10753597Y3022600D01*
X10743184Y3012186D01*
X10727690Y3006852D01*
X10722609Y3006852D01*
X10706861Y3012186D01*
X10696447Y3022600D01*
X10691368Y3038094D01*
X10691368Y3043173D01*
X10696447Y3058921D01*
X10706861Y3069336D01*
X10722609Y3074415D01*
X10727690Y3074415D01*
X10743184Y3069336D01*
X10753597Y3058921D01*
X10758931Y3038094D01*
X10758931Y3012186D01*
X10753597Y2986023D01*
X10743184Y2970529D01*
X10727690Y2965450D01*
X10717275Y2965450D01*
X10701781Y2970529D01*
X10696447Y2980944D01*
X9967340Y2047747D02*
G01*
X9962006Y2058162D01*
X9951593Y2068576D01*
X9941433Y2073655D01*
X9920604Y2073655D01*
X9910190Y2068576D01*
X9899777Y2058162D01*
X9894443Y2047747D01*
X9889363Y2032000D01*
X9889363Y2006092D01*
X9894443Y1990597D01*
X9899777Y1980184D01*
X9910190Y1969770D01*
X9920604Y1964689D01*
X9941433Y1964689D01*
X9951593Y1969770D01*
X9962006Y1980184D01*
X9967340Y1990597D01*
X10001631Y2052828D02*
G01*
X10012045Y2058162D01*
X10027538Y2073655D01*
X10027538Y1964689D01*
X10093070Y2073655D02*
G01*
X10077322Y2068576D01*
X10067163Y2052828D01*
X10061829Y2026920D01*
X10061829Y2011426D01*
X10067163Y1985263D01*
X10077322Y1969770D01*
X10093070Y1964689D01*
X10103484Y1964689D01*
X10118979Y1969770D01*
X10129393Y1985263D01*
X10134472Y2011426D01*
X10134472Y2026920D01*
X10129393Y2052828D01*
X10118979Y2068576D01*
X10103484Y2073655D01*
X10093070Y2073655D01*
X10657077Y2540507D02*
G01*
X10651743Y2550921D01*
X10641329Y2561336D01*
X10631170Y2566415D01*
X10610341Y2566415D01*
X10599927Y2561336D01*
X10589513Y2550921D01*
X10584179Y2540507D01*
X10579100Y2524760D01*
X10579100Y2498852D01*
X10584179Y2483357D01*
X10589513Y2472944D01*
X10599927Y2462529D01*
X10610341Y2457450D01*
X10631170Y2457450D01*
X10641329Y2462529D01*
X10651743Y2472944D01*
X10657077Y2483357D01*
X10691368Y2545587D02*
G01*
X10701781Y2550921D01*
X10717275Y2566415D01*
X10717275Y2457450D01*
X10751565Y2545587D02*
G01*
X10761979Y2550921D01*
X10777474Y2566415D01*
X10777474Y2457450D01*
X10657077Y2032507D02*
G01*
X10651743Y2042921D01*
X10641329Y2053336D01*
X10631170Y2058415D01*
X10610341Y2058415D01*
X10599927Y2053336D01*
X10589513Y2042921D01*
X10584179Y2032507D01*
X10579100Y2016760D01*
X10579100Y1990852D01*
X10584179Y1975357D01*
X10589513Y1964944D01*
X10599927Y1954529D01*
X10610341Y1949450D01*
X10631170Y1949450D01*
X10641329Y1954529D01*
X10651743Y1964944D01*
X10657077Y1975357D01*
X10691368Y2037587D02*
G01*
X10701781Y2042921D01*
X10717275Y2058415D01*
X10717275Y1949450D01*
X10756900Y2032507D02*
G01*
X10756900Y2037587D01*
X10761979Y2048002D01*
X10767059Y2053336D01*
X10777474Y2058415D01*
X10798302Y2058415D01*
X10808715Y2053336D01*
X10814050Y2048002D01*
X10819129Y2037587D01*
X10819129Y2027173D01*
X10814050Y2016760D01*
X10803636Y2001265D01*
X10751565Y1949450D01*
X10824209Y1949450D01*
X10657077Y1524507D02*
G01*
X10651743Y1534921D01*
X10641329Y1545336D01*
X10631170Y1550415D01*
X10610341Y1550415D01*
X10599927Y1545336D01*
X10589513Y1534921D01*
X10584179Y1524507D01*
X10579100Y1508760D01*
X10579100Y1482852D01*
X10584179Y1467357D01*
X10589513Y1456944D01*
X10599927Y1446529D01*
X10610341Y1441450D01*
X10631170Y1441450D01*
X10641329Y1446529D01*
X10651743Y1456944D01*
X10657077Y1467357D01*
X10691368Y1529587D02*
G01*
X10701781Y1534921D01*
X10717275Y1550415D01*
X10717275Y1441450D01*
X10761979Y1550415D02*
G01*
X10819129Y1550415D01*
X10787888Y1508760D01*
X10803636Y1508760D01*
X10814050Y1503679D01*
X10819129Y1498600D01*
X10824209Y1482852D01*
X10824209Y1472437D01*
X10819129Y1456944D01*
X10808715Y1446529D01*
X10793222Y1441450D01*
X10777474Y1441450D01*
X10761979Y1446529D01*
X10756900Y1451610D01*
X10751565Y1462023D01*
X9918700Y1550415D02*
G01*
X9918700Y1441450D01*
X9918700Y1550415D02*
G01*
X9955022Y1550415D01*
X9970770Y1545336D01*
X9980929Y1534921D01*
X9986263Y1524507D01*
X9991343Y1508760D01*
X9991343Y1482852D01*
X9986263Y1467357D01*
X9980929Y1456944D01*
X9970770Y1446529D01*
X9955022Y1441450D01*
X9918700Y1441450D01*
X10025634Y1529587D02*
G01*
X10036047Y1534921D01*
X10051795Y1550415D01*
X10051795Y1441450D01*
X9918700Y1042415D02*
G01*
X9918700Y933450D01*
X9918700Y1042415D02*
G01*
X9955022Y1042415D01*
X9970770Y1037336D01*
X9980929Y1026921D01*
X9986263Y1016507D01*
X9991343Y1000760D01*
X9991343Y974852D01*
X9986263Y959357D01*
X9980929Y948944D01*
X9970770Y938529D01*
X9955022Y933450D01*
X9918700Y933450D01*
X10030968Y1016507D02*
G01*
X10030968Y1021587D01*
X10036047Y1032002D01*
X10041381Y1037336D01*
X10051795Y1042415D01*
X10072370Y1042415D01*
X10082784Y1037336D01*
X10088118Y1032002D01*
X10093197Y1021587D01*
X10093197Y1011173D01*
X10088118Y1000760D01*
X10077704Y985265D01*
X10025634Y933450D01*
X10098531Y933450D01*
X8648700Y2058415D02*
G01*
X8648700Y1949450D01*
X8648700Y2058415D02*
G01*
X8685022Y2058415D01*
X8700770Y2053336D01*
X8710929Y2042921D01*
X8716263Y2032507D01*
X8721343Y2016760D01*
X8721343Y1990852D01*
X8716263Y1975357D01*
X8710929Y1964944D01*
X8700770Y1954529D01*
X8685022Y1949450D01*
X8648700Y1949450D01*
X8766047Y2058415D02*
G01*
X8823197Y2058415D01*
X8792209Y2016760D01*
X8807704Y2016760D01*
X8818118Y2011679D01*
X8823197Y2006600D01*
X8828531Y1990852D01*
X8828531Y1980437D01*
X8823197Y1964944D01*
X8812784Y1954529D01*
X8797290Y1949450D01*
X8781795Y1949450D01*
X8766047Y1954529D01*
X8760968Y1959610D01*
X8755634Y1970023D01*
X10602912Y1042670D02*
G01*
X10602912Y933704D01*
X10602912Y933704D02*
G01*
X10665142Y933704D01*
X10699432Y1021842D02*
G01*
X10709846Y1027176D01*
X10725594Y1042670D01*
X10725594Y933704D01*
X9334500Y2058415D02*
G01*
X9334500Y1949450D01*
X9334500Y2058415D02*
G01*
X9381236Y2058415D01*
X9396729Y2053336D01*
X9402063Y2048002D01*
X9407143Y2037587D01*
X9407143Y2027173D01*
X9402063Y2016760D01*
X9396729Y2011679D01*
X9381236Y2006600D01*
X9334500Y2006600D01*
X9370822Y2006600D02*
G01*
X9407143Y1949450D01*
X9441434Y2037587D02*
G01*
X9451847Y2042921D01*
X9467595Y2058415D01*
X9467595Y1949450D01*
X7556500Y3074415D02*
G01*
X7556500Y2965450D01*
X7556500Y3074415D02*
G01*
X7603236Y3074415D01*
X7618729Y3069336D01*
X7624063Y3064002D01*
X7629143Y3053587D01*
X7629143Y3043173D01*
X7624063Y3032760D01*
X7618729Y3027679D01*
X7603236Y3022600D01*
X7556500Y3022600D01*
X7592822Y3022600D02*
G01*
X7629143Y2965450D01*
X7668768Y3048507D02*
G01*
X7668768Y3053587D01*
X7673847Y3064002D01*
X7679181Y3069336D01*
X7689595Y3074415D01*
X7710170Y3074415D01*
X7720584Y3069336D01*
X7725918Y3064002D01*
X7730997Y3053587D01*
X7730997Y3043173D01*
X7725918Y3032760D01*
X7715504Y3017265D01*
X7663434Y2965450D01*
X7736331Y2965450D01*
X8064500Y3074415D02*
G01*
X8064500Y2965450D01*
X8064500Y3074415D02*
G01*
X8111236Y3074415D01*
X8126729Y3069336D01*
X8132063Y3064002D01*
X8137143Y3053587D01*
X8137143Y3043173D01*
X8132063Y3032760D01*
X8126729Y3027679D01*
X8111236Y3022600D01*
X8064500Y3022600D01*
X8100822Y3022600D02*
G01*
X8137143Y2965450D01*
X8181847Y3074415D02*
G01*
X8238997Y3074415D01*
X8208009Y3032760D01*
X8223504Y3032760D01*
X8233918Y3027679D01*
X8238997Y3022600D01*
X8244331Y3006852D01*
X8244331Y2996437D01*
X8238997Y2980944D01*
X8228584Y2970529D01*
X8213090Y2965450D01*
X8197595Y2965450D01*
X8181847Y2970529D01*
X8176768Y2975610D01*
X8171434Y2986023D01*
X7556500Y2566415D02*
G01*
X7556500Y2457450D01*
X7556500Y2566415D02*
G01*
X7603236Y2566415D01*
X7618729Y2561336D01*
X7624063Y2556002D01*
X7629143Y2545587D01*
X7629143Y2535173D01*
X7624063Y2524760D01*
X7618729Y2519679D01*
X7603236Y2514600D01*
X7556500Y2514600D01*
X7592822Y2514600D02*
G01*
X7629143Y2457450D01*
X7715504Y2566415D02*
G01*
X7663434Y2493771D01*
X7741411Y2493771D01*
X7715504Y2566415D02*
G01*
X7715504Y2457450D01*
X8064500Y2566415D02*
G01*
X8064500Y2457450D01*
X8064500Y2566415D02*
G01*
X8111236Y2566415D01*
X8126729Y2561336D01*
X8132063Y2556002D01*
X8137143Y2545587D01*
X8137143Y2535173D01*
X8132063Y2524760D01*
X8126729Y2519679D01*
X8111236Y2514600D01*
X8064500Y2514600D01*
X8100822Y2514600D02*
G01*
X8137143Y2457450D01*
X8233918Y2566415D02*
G01*
X8181847Y2566415D01*
X8176768Y2519679D01*
X8181847Y2524760D01*
X8197595Y2530094D01*
X8213090Y2530094D01*
X8228584Y2524760D01*
X8238997Y2514600D01*
X8244331Y2498852D01*
X8244331Y2488437D01*
X8238997Y2472944D01*
X8228584Y2462529D01*
X8213090Y2457450D01*
X8197595Y2457450D01*
X8181847Y2462529D01*
X8176768Y2467610D01*
X8171434Y2478023D01*
X9334500Y1550415D02*
G01*
X9334500Y1441450D01*
X9334500Y1550415D02*
G01*
X9381236Y1550415D01*
X9396729Y1545336D01*
X9402063Y1540002D01*
X9407143Y1529587D01*
X9407143Y1519173D01*
X9402063Y1508760D01*
X9396729Y1503679D01*
X9381236Y1498600D01*
X9334500Y1498600D01*
X9370822Y1498600D02*
G01*
X9407143Y1441450D01*
X9503918Y1534921D02*
G01*
X9498584Y1545336D01*
X9483090Y1550415D01*
X9472675Y1550415D01*
X9457181Y1545336D01*
X9446768Y1529587D01*
X9441434Y1503679D01*
X9441434Y1477771D01*
X9446768Y1456944D01*
X9457181Y1446529D01*
X9472675Y1441450D01*
X9478009Y1441450D01*
X9493504Y1446529D01*
X9503918Y1456944D01*
X9508997Y1472437D01*
X9508997Y1477771D01*
X9503918Y1493265D01*
X9493504Y1503679D01*
X9478009Y1508760D01*
X9472675Y1508760D01*
X9457181Y1503679D01*
X9446768Y1493265D01*
X9441434Y1477771D01*
X9334500Y1042415D02*
G01*
X9334500Y933450D01*
X9334500Y1042415D02*
G01*
X9381236Y1042415D01*
X9396729Y1037336D01*
X9402063Y1032002D01*
X9407143Y1021587D01*
X9407143Y1011173D01*
X9402063Y1000760D01*
X9396729Y995679D01*
X9381236Y990600D01*
X9334500Y990600D01*
X9370822Y990600D02*
G01*
X9407143Y933450D01*
X9514331Y1042415D02*
G01*
X9462261Y933450D01*
X9441434Y1042415D02*
G01*
X9514331Y1042415D01*
X5524500Y534415D02*
G01*
X5524500Y425450D01*
X5524500Y534415D02*
G01*
X5571236Y534415D01*
X5586729Y529336D01*
X5592063Y524002D01*
X5597143Y513587D01*
X5597143Y503173D01*
X5592063Y492760D01*
X5586729Y487679D01*
X5571236Y482600D01*
X5524500Y482600D01*
X5560822Y482600D02*
G01*
X5597143Y425450D01*
X5657595Y534415D02*
G01*
X5641847Y529336D01*
X5636768Y518921D01*
X5636768Y508507D01*
X5641847Y498094D01*
X5652261Y492760D01*
X5673090Y487679D01*
X5688584Y482600D01*
X5698997Y472186D01*
X5704331Y461771D01*
X5704331Y446023D01*
X5698997Y435610D01*
X5693918Y430529D01*
X5678170Y425450D01*
X5657595Y425450D01*
X5641847Y430529D01*
X5636768Y435610D01*
X5631434Y446023D01*
X5631434Y461771D01*
X5636768Y472186D01*
X5647181Y482600D01*
X5662675Y487679D01*
X5683504Y492760D01*
X5693918Y498094D01*
X5698997Y508507D01*
X5698997Y518921D01*
X5693918Y529336D01*
X5678170Y534415D01*
X5657595Y534415D01*
X6032500Y534415D02*
G01*
X6032500Y425450D01*
X6032500Y534415D02*
G01*
X6079236Y534415D01*
X6094729Y529336D01*
X6100063Y524002D01*
X6105143Y513587D01*
X6105143Y503173D01*
X6100063Y492760D01*
X6094729Y487679D01*
X6079236Y482600D01*
X6032500Y482600D01*
X6068822Y482600D02*
G01*
X6105143Y425450D01*
X6206997Y498094D02*
G01*
X6201918Y482600D01*
X6191504Y472186D01*
X6176009Y466852D01*
X6170675Y466852D01*
X6155181Y472186D01*
X6144768Y482600D01*
X6139434Y498094D01*
X6139434Y503173D01*
X6144768Y518921D01*
X6155181Y529336D01*
X6170675Y534415D01*
X6176009Y534415D01*
X6191504Y529336D01*
X6201918Y518921D01*
X6206997Y498094D01*
X6206997Y472186D01*
X6201918Y446023D01*
X6191504Y430529D01*
X6176009Y425450D01*
X6165595Y425450D01*
X6149847Y430529D01*
X6144768Y440944D01*
X6540500Y534415D02*
G01*
X6540500Y425450D01*
X6540500Y534415D02*
G01*
X6587236Y534415D01*
X6602729Y529336D01*
X6608063Y524002D01*
X6613143Y513587D01*
X6613143Y503173D01*
X6608063Y492760D01*
X6602729Y487679D01*
X6587236Y482600D01*
X6540500Y482600D01*
X6576822Y482600D02*
G01*
X6613143Y425450D01*
X6647434Y513587D02*
G01*
X6657847Y518921D01*
X6673595Y534415D01*
X6673595Y425450D01*
X6738874Y534415D02*
G01*
X6723379Y529336D01*
X6712965Y513587D01*
X6707886Y487679D01*
X6707886Y472186D01*
X6712965Y446023D01*
X6723379Y430529D01*
X6738874Y425450D01*
X6749288Y425450D01*
X6765036Y430529D01*
X6775450Y446023D01*
X6780529Y472186D01*
X6780529Y487679D01*
X6775450Y513587D01*
X6765036Y529336D01*
X6749288Y534415D01*
X6738874Y534415D01*
X7670800Y4636515D02*
G01*
X7670800Y4558537D01*
X7675879Y4543044D01*
X7686293Y4532629D01*
X7702041Y4527550D01*
X7712456Y4527550D01*
X7727950Y4532629D01*
X7738363Y4543044D01*
X7743443Y4558537D01*
X7743443Y4636515D01*
X7783068Y4610607D02*
G01*
X7783068Y4615687D01*
X7788147Y4626102D01*
X7793481Y4631436D01*
X7803895Y4636515D01*
X7824470Y4636515D01*
X7834884Y4631436D01*
X7840218Y4626102D01*
X7845297Y4615687D01*
X7845297Y4605273D01*
X7840218Y4594860D01*
X7829804Y4579365D01*
X7777734Y4527550D01*
X7850631Y4527550D01*
X6591300Y3099810D02*
G01*
X6591300Y3021832D01*
X6596379Y3006338D01*
X6606793Y2995924D01*
X6622541Y2990844D01*
X6632956Y2990844D01*
X6648450Y2995924D01*
X6658863Y3006338D01*
X6663943Y3021832D01*
X6663943Y3099810D01*
X6750304Y3099810D02*
G01*
X6698234Y3027166D01*
X6776211Y3027166D01*
X6750304Y3099810D02*
G01*
X6750304Y2990844D01*
X6160439Y4598415D02*
G01*
X6160439Y4520437D01*
X6165519Y4504944D01*
X6175933Y4494529D01*
X6191681Y4489450D01*
X6202095Y4489450D01*
X6217589Y4494529D01*
X6228003Y4504944D01*
X6233083Y4520437D01*
X6233083Y4598415D01*
X6329857Y4598415D02*
G01*
X6277787Y4598415D01*
X6272707Y4551679D01*
X6277787Y4556760D01*
X6293535Y4562094D01*
X6309029Y4562094D01*
X6324523Y4556760D01*
X6334937Y4546600D01*
X6340271Y4530852D01*
X6340271Y4520437D01*
X6334937Y4504944D01*
X6324523Y4494529D01*
X6309029Y4489450D01*
X6293535Y4489450D01*
X6277787Y4494529D01*
X6272707Y4499610D01*
X6267373Y4510023D01*
X5651500Y3099815D02*
G01*
X5651500Y3021837D01*
X5656579Y3006344D01*
X5666993Y2995929D01*
X5682741Y2990850D01*
X5693156Y2990850D01*
X5708650Y2995929D01*
X5719063Y3006344D01*
X5724143Y3021837D01*
X5724143Y3099815D01*
X5820918Y3084321D02*
G01*
X5815584Y3094736D01*
X5800090Y3099815D01*
X5789675Y3099815D01*
X5774181Y3094736D01*
X5763768Y3078987D01*
X5758434Y3053079D01*
X5758434Y3027171D01*
X5763768Y3006344D01*
X5774181Y2995929D01*
X5789675Y2990850D01*
X5795009Y2990850D01*
X5810504Y2995929D01*
X5820918Y3006344D01*
X5825997Y3021837D01*
X5825997Y3027171D01*
X5820918Y3042665D01*
X5810504Y3053079D01*
X5795009Y3058160D01*
X5789675Y3058160D01*
X5774181Y3053079D01*
X5763768Y3042665D01*
X5758434Y3027171D01*
X8974899Y4611115D02*
G01*
X8974899Y4533137D01*
X8979979Y4517644D01*
X8990393Y4507229D01*
X9006141Y4502150D01*
X9016555Y4502150D01*
X9032049Y4507229D01*
X9042463Y4517644D01*
X9047543Y4533137D01*
X9047543Y4611115D01*
X9154731Y4611115D02*
G01*
X9102661Y4502150D01*
X9081833Y4611115D02*
G01*
X9154731Y4611115D01*
X8974899Y3341115D02*
G01*
X8974899Y3263137D01*
X8979979Y3247644D01*
X8990393Y3237229D01*
X9006141Y3232150D01*
X9016555Y3232150D01*
X9032049Y3237229D01*
X9042463Y3247644D01*
X9047543Y3263137D01*
X9047543Y3341115D01*
X9107995Y3341115D02*
G01*
X9092247Y3336036D01*
X9087167Y3325621D01*
X9087167Y3315207D01*
X9092247Y3304794D01*
X9102661Y3299460D01*
X9123489Y3294379D01*
X9138983Y3289300D01*
X9149397Y3278886D01*
X9154731Y3268471D01*
X9154731Y3252723D01*
X9149397Y3242310D01*
X9144317Y3237229D01*
X9128569Y3232150D01*
X9107995Y3232150D01*
X9092247Y3237229D01*
X9087167Y3242310D01*
X9081833Y3252723D01*
X9081833Y3268471D01*
X9087167Y3278886D01*
X9097581Y3289300D01*
X9113075Y3294379D01*
X9133903Y3299460D01*
X9144317Y3304794D01*
X9149397Y3315207D01*
X9149397Y3325621D01*
X9144317Y3336036D01*
X9128569Y3341115D01*
X9107995Y3341115D01*
X5878093Y1571713D02*
G01*
X5878093Y1493735D01*
X5883173Y1478241D01*
X5893587Y1467827D01*
X5909335Y1462747D01*
X5919749Y1462747D01*
X5935243Y1467827D01*
X5945657Y1478241D01*
X5950737Y1493735D01*
X5950737Y1571713D01*
X6052591Y1535391D02*
G01*
X6047511Y1519897D01*
X6037097Y1509483D01*
X6021603Y1504149D01*
X6016269Y1504149D01*
X6000775Y1509483D01*
X5990361Y1519897D01*
X5985027Y1535391D01*
X5985027Y1540471D01*
X5990361Y1556219D01*
X6000775Y1566633D01*
X6016269Y1571713D01*
X6021603Y1571713D01*
X6037097Y1566633D01*
X6047511Y1556219D01*
X6052591Y1535391D01*
X6052591Y1509483D01*
X6047511Y1483321D01*
X6037097Y1467827D01*
X6021603Y1462747D01*
X6011189Y1462747D01*
X5995441Y1467827D01*
X5990361Y1478241D01*
X7148093Y1571713D02*
G01*
X7148093Y1493735D01*
X7153173Y1478241D01*
X7163587Y1467827D01*
X7179335Y1462747D01*
X7189749Y1462747D01*
X7205243Y1467827D01*
X7215657Y1478241D01*
X7220737Y1493735D01*
X7220737Y1571713D01*
X7255027Y1550885D02*
G01*
X7265441Y1556219D01*
X7281189Y1571713D01*
X7281189Y1462747D01*
X7346467Y1571713D02*
G01*
X7330973Y1566633D01*
X7320559Y1550885D01*
X7315479Y1524977D01*
X7315479Y1509483D01*
X7320559Y1483321D01*
X7330973Y1467827D01*
X7346467Y1462747D01*
X7356881Y1462747D01*
X7372629Y1467827D01*
X7383043Y1483321D01*
X7388123Y1509483D01*
X7388123Y1524977D01*
X7383043Y1550885D01*
X7372629Y1566633D01*
X7356881Y1571713D01*
X7346467Y1571713D01*
X8418093Y1571713D02*
G01*
X8418093Y1493735D01*
X8423173Y1478241D01*
X8433587Y1467827D01*
X8449335Y1462747D01*
X8459749Y1462747D01*
X8475243Y1467827D01*
X8485657Y1478241D01*
X8490737Y1493735D01*
X8490737Y1571713D01*
X8525027Y1550885D02*
G01*
X8535441Y1556219D01*
X8551189Y1571713D01*
X8551189Y1462747D01*
X8585479Y1550885D02*
G01*
X8595893Y1556219D01*
X8611387Y1571713D01*
X8611387Y1462747D01*
X10196093Y4619713D02*
G01*
X10196093Y4541735D01*
X10201173Y4526241D01*
X10211587Y4515827D01*
X10227335Y4510747D01*
X10237749Y4510747D01*
X10253243Y4515827D01*
X10263657Y4526241D01*
X10268737Y4541735D01*
X10268737Y4619713D01*
X10303027Y4598885D02*
G01*
X10313441Y4604219D01*
X10329189Y4619713D01*
X10329189Y4510747D01*
X10368559Y4593805D02*
G01*
X10368559Y4598885D01*
X10373893Y4609299D01*
X10378973Y4614633D01*
X10389387Y4619713D01*
X10410215Y4619713D01*
X10420629Y4614633D01*
X10425709Y4609299D01*
X10431043Y4598885D01*
X10431043Y4588471D01*
X10425709Y4578057D01*
X10415295Y4562563D01*
X10363479Y4510747D01*
X10436123Y4510747D01*
X3749040Y1472692D02*
G01*
X3743959Y1483105D01*
X3733545Y1493520D01*
X3723131Y1498600D01*
X3702304Y1498600D01*
X3691890Y1493520D01*
X3681475Y1483105D01*
X3676395Y1472692D01*
X3671061Y1456944D01*
X3671061Y1431036D01*
X3676395Y1415542D01*
X3681475Y1405128D01*
X3691890Y1394713D01*
X3702304Y1389634D01*
X3723131Y1389634D01*
X3733545Y1394713D01*
X3743959Y1405128D01*
X3749040Y1415542D01*
X3835400Y1498600D02*
G01*
X3783329Y1425955D01*
X3861308Y1425955D01*
X3835400Y1498600D02*
G01*
X3835400Y1389634D01*
X4257040Y1472692D02*
G01*
X4251959Y1483105D01*
X4241545Y1493520D01*
X4231131Y1498600D01*
X4210304Y1498600D01*
X4199890Y1493520D01*
X4189475Y1483105D01*
X4184395Y1472692D01*
X4179061Y1456944D01*
X4179061Y1431036D01*
X4184395Y1415542D01*
X4189475Y1405128D01*
X4199890Y1394713D01*
X4210304Y1389634D01*
X4231131Y1389634D01*
X4241545Y1394713D01*
X4251959Y1405128D01*
X4257040Y1415542D01*
X4353813Y1498600D02*
G01*
X4301743Y1498600D01*
X4296663Y1451863D01*
X4301743Y1456944D01*
X4317238Y1462278D01*
X4332986Y1462278D01*
X4348479Y1456944D01*
X4358893Y1446784D01*
X4364227Y1431036D01*
X4364227Y1420621D01*
X4358893Y1405128D01*
X4348479Y1394713D01*
X4332986Y1389634D01*
X4317238Y1389634D01*
X4301743Y1394713D01*
X4296663Y1399794D01*
X4291329Y1410207D01*
D11*
X2311549Y1321661D02*
G01*
X2311549Y1241658D01*
X2200574Y1352646D02*
G01*
X2280572Y1352646D01*
X2200574Y1210680D02*
G01*
X2280572Y1210680D01*
X2142985Y1353228D02*
G01*
X2062985Y1353228D01*
X2032002Y1322245D02*
G01*
X2032002Y1242247D01*
X2142985Y1211267D02*
G01*
X2062985Y1211267D01*
X3327549Y1321661D02*
G01*
X3327549Y1241658D01*
X3216574Y1352646D02*
G01*
X3296572Y1352646D01*
X3216574Y1210680D02*
G01*
X3296572Y1210680D01*
X3158985Y1353228D02*
G01*
X3078985Y1353228D01*
X3048002Y1322245D02*
G01*
X3048002Y1242247D01*
X3158985Y1211267D02*
G01*
X3078985Y1211267D01*
X3302000Y3137915D02*
G01*
X3302000Y2198115D01*
X4254500Y2198115D01*
X4254500Y3150615D01*
X4216400Y3150615D01*
X4216400Y3099815D01*
X3365500Y3099815D01*
X3365500Y3137915D01*
X3302000Y3137915D01*
X3919946Y2618023D02*
G01*
X3648900Y2618023D01*
D10*
X1090279Y5332059D02*
G01*
X1090279Y5996340D01*
X2135520Y5996340D01*
X2135520Y5332059D01*
X1090279Y5332059D01*
D12*
X833988Y939284D02*
G01*
X833958Y938784D01*
X833958Y1140205D01*
X1824050Y1140205D01*
X1824050Y610362D01*
X833958Y610362D01*
X833958Y811784D01*
X833988Y811283D01*
D13*
X9735820Y3272789D02*
G01*
X10050779Y3272789D01*
X9733279Y3432810D02*
G01*
X10053320Y3432810D01*
X9860950Y3272789D02*
G01*
X9861323Y3432810D01*
D11*
X10743501Y3405477D02*
G01*
X10743501Y3325474D01*
X10632526Y3436462D02*
G01*
X10712523Y3436462D01*
X10632526Y3294496D02*
G01*
X10712523Y3294496D01*
X10574936Y3437044D02*
G01*
X10494937Y3437044D01*
X10463954Y3406061D02*
G01*
X10463954Y3326063D01*
X10574936Y3295083D02*
G01*
X10494937Y3295083D01*
D13*
X9735820Y2764789D02*
G01*
X10050779Y2764789D01*
X9733279Y2924810D02*
G01*
X10053320Y2924810D01*
X9860950Y2764789D02*
G01*
X9861323Y2924810D01*
X9735820Y2256789D02*
G01*
X10050779Y2256789D01*
X9733279Y2416810D02*
G01*
X10053320Y2416810D01*
X9860950Y2256789D02*
G01*
X9861323Y2416810D01*
D11*
X10743501Y2897477D02*
G01*
X10743501Y2817474D01*
X10632526Y2928462D02*
G01*
X10712523Y2928462D01*
X10632526Y2786496D02*
G01*
X10712523Y2786496D01*
X10574936Y2929044D02*
G01*
X10494937Y2929044D01*
X10463954Y2898061D02*
G01*
X10463954Y2818063D01*
X10574936Y2787083D02*
G01*
X10494937Y2787083D01*
D13*
X9735820Y1748789D02*
G01*
X10050779Y1748789D01*
X9733279Y1908810D02*
G01*
X10053320Y1908810D01*
X9860950Y1748789D02*
G01*
X9861323Y1908810D01*
D11*
X10743501Y2389477D02*
G01*
X10743501Y2309474D01*
X10632526Y2420462D02*
G01*
X10712523Y2420462D01*
X10632526Y2278496D02*
G01*
X10712523Y2278496D01*
X10574936Y2421044D02*
G01*
X10494937Y2421044D01*
X10463954Y2390061D02*
G01*
X10463954Y2310063D01*
X10574936Y2279083D02*
G01*
X10494937Y2279083D01*
X10743501Y1881477D02*
G01*
X10743501Y1801474D01*
X10632526Y1912462D02*
G01*
X10712523Y1912462D01*
X10632526Y1770496D02*
G01*
X10712523Y1770496D01*
X10574936Y1913044D02*
G01*
X10494937Y1913044D01*
X10463954Y1882061D02*
G01*
X10463954Y1802063D01*
X10574936Y1771083D02*
G01*
X10494937Y1771083D01*
X10743501Y1373477D02*
G01*
X10743501Y1293474D01*
X10632526Y1404462D02*
G01*
X10712523Y1404462D01*
X10632526Y1262496D02*
G01*
X10712523Y1262496D01*
X10574936Y1405044D02*
G01*
X10494937Y1405044D01*
X10463954Y1374061D02*
G01*
X10463954Y1294063D01*
X10574936Y1263083D02*
G01*
X10494937Y1263083D01*
D14*
X9760699Y1232585D02*
G01*
X9778083Y1232585D01*
X9760699Y1383614D02*
G01*
X9778083Y1383614D01*
X9760699Y1383614D02*
G01*
X9760699Y1394719D01*
X9778083Y1394719D01*
X9778083Y1221480D02*
G01*
X9760699Y1221480D01*
X9760699Y1232585D01*
X9778083Y1232585D02*
G01*
X9778083Y1221480D01*
X9778083Y1394719D02*
G01*
X9778083Y1383614D01*
X9835987Y1394719D02*
G01*
X9835987Y1221480D01*
D10*
X9821699Y1394719D02*
G01*
X9821699Y1221480D01*
X9778083Y1394719D02*
G01*
X10059316Y1394719D01*
X10059316Y1394719D02*
G01*
X10059316Y1377919D01*
X9778083Y1221480D02*
G01*
X10059316Y1221480D01*
X10059316Y1221480D02*
G01*
X10059316Y1238280D01*
D14*
X9760699Y724585D02*
G01*
X9778083Y724585D01*
X9760699Y875614D02*
G01*
X9778083Y875614D01*
X9760699Y875614D02*
G01*
X9760699Y886719D01*
X9778083Y886719D01*
X9778083Y713480D02*
G01*
X9760699Y713480D01*
X9760699Y724585D01*
X9778083Y724585D02*
G01*
X9778083Y713480D01*
X9778083Y886719D02*
G01*
X9778083Y875614D01*
X9835987Y886719D02*
G01*
X9835987Y713480D01*
D10*
X9821699Y886719D02*
G01*
X9821699Y713480D01*
X9778083Y886719D02*
G01*
X10059316Y886719D01*
X10059316Y886719D02*
G01*
X10059316Y869919D01*
X9778083Y713480D02*
G01*
X10059316Y713480D01*
X10059316Y713480D02*
G01*
X10059316Y730280D01*
D14*
X8490699Y1740585D02*
G01*
X8508083Y1740585D01*
X8490699Y1891614D02*
G01*
X8508083Y1891614D01*
X8490699Y1891614D02*
G01*
X8490699Y1902719D01*
X8508083Y1902719D01*
X8508083Y1729480D02*
G01*
X8490699Y1729480D01*
X8490699Y1740585D01*
X8508083Y1740585D02*
G01*
X8508083Y1729480D01*
X8508083Y1902719D02*
G01*
X8508083Y1891614D01*
X8565987Y1902719D02*
G01*
X8565987Y1729480D01*
D10*
X8551699Y1902719D02*
G01*
X8551699Y1729480D01*
X8508083Y1902719D02*
G01*
X8789316Y1902719D01*
X8789316Y1902719D02*
G01*
X8789316Y1885919D01*
X8508083Y1729480D02*
G01*
X8789316Y1729480D01*
X8789316Y1729480D02*
G01*
X8789316Y1746280D01*
D15*
X10477332Y760364D02*
G01*
X10553532Y760364D01*
X10730334Y760364D02*
G01*
X10654134Y760364D01*
X10730334Y892484D02*
G01*
X10654134Y892484D01*
D10*
X10730334Y892484D02*
G01*
X10745563Y877242D01*
X10745563Y775599D01*
X10730334Y760364D01*
D15*
X10477332Y892484D02*
G01*
X10553532Y892484D01*
D10*
X10477332Y760364D02*
G01*
X10462089Y775599D01*
X10462089Y877242D01*
X10477332Y892484D01*
X9377121Y1775439D02*
G01*
X9473008Y1775439D01*
X9473008Y1907560D01*
X9377121Y1907560D01*
X9291878Y1775439D02*
G01*
X9195991Y1775439D01*
X9195991Y1907560D01*
X9291878Y1907560D01*
X7599121Y2791439D02*
G01*
X7695008Y2791439D01*
X7695008Y2923560D01*
X7599121Y2923560D01*
X7513878Y2791439D02*
G01*
X7417991Y2791439D01*
X7417991Y2923560D01*
X7513878Y2923560D01*
X8107121Y2791439D02*
G01*
X8203008Y2791439D01*
X8203008Y2923560D01*
X8107121Y2923560D01*
X8021878Y2791439D02*
G01*
X7925991Y2791439D01*
X7925991Y2923560D01*
X8021878Y2923560D01*
X7599121Y2283439D02*
G01*
X7695008Y2283439D01*
X7695008Y2415560D01*
X7599121Y2415560D01*
X7513878Y2283439D02*
G01*
X7417991Y2283439D01*
X7417991Y2415560D01*
X7513878Y2415560D01*
X8107121Y2283439D02*
G01*
X8203008Y2283439D01*
X8203008Y2415560D01*
X8107121Y2415560D01*
X8021878Y2283439D02*
G01*
X7925991Y2283439D01*
X7925991Y2415560D01*
X8021878Y2415560D01*
X9377121Y1267439D02*
G01*
X9473008Y1267439D01*
X9473008Y1399560D01*
X9377121Y1399560D01*
X9291878Y1267439D02*
G01*
X9195991Y1267439D01*
X9195991Y1399560D01*
X9291878Y1399560D01*
X9377121Y759439D02*
G01*
X9473008Y759439D01*
X9473008Y891560D01*
X9377121Y891560D01*
X9291878Y759439D02*
G01*
X9195991Y759439D01*
X9195991Y891560D01*
X9291878Y891560D01*
X5567121Y251439D02*
G01*
X5663008Y251439D01*
X5663008Y383560D01*
X5567121Y383560D01*
X5481878Y251439D02*
G01*
X5385991Y251439D01*
X5385991Y383560D01*
X5481878Y383560D01*
X6075121Y251439D02*
G01*
X6171008Y251439D01*
X6171008Y383560D01*
X6075121Y383560D01*
X5989878Y251439D02*
G01*
X5893991Y251439D01*
X5893991Y383560D01*
X5989878Y383560D01*
X6583121Y251439D02*
G01*
X6679008Y251439D01*
X6679008Y383560D01*
X6583121Y383560D01*
X6497878Y251439D02*
G01*
X6401991Y251439D01*
X6401991Y383560D01*
X6497878Y383560D01*
X7173579Y3554059D02*
G01*
X7173579Y4218340D01*
X8218820Y4218340D01*
X8218820Y3554059D01*
X7173579Y3554059D01*
X6176578Y2425956D02*
G01*
X6176578Y2730238D01*
X7056821Y2730238D01*
X7056821Y2425956D01*
X6176578Y2425956D01*
X6090000Y4440920D02*
G01*
X5893620Y4440920D01*
X6090000Y3407679D02*
G01*
X5893620Y3407679D01*
X5893620Y4440920D02*
G01*
X5893620Y3407679D01*
D11*
X5847199Y2921000D02*
G01*
X5847199Y1905000D01*
X5486400Y2921000D02*
G01*
X5486400Y1905000D01*
X5930900Y1905000D01*
X5930900Y2921000D01*
X5486400Y2921000D01*
X8453498Y4438599D02*
G01*
X9453499Y4438599D01*
X9453499Y4438599D02*
G01*
X9453499Y3668600D01*
X8453498Y4438599D02*
G01*
X8453498Y3668600D01*
X8453498Y3668600D02*
G01*
X9453499Y3668600D01*
X8453498Y4258655D02*
G01*
X9453499Y4258655D01*
X8453498Y3854140D02*
G01*
X9453499Y3854140D01*
X9461500Y4305300D02*
G01*
X9524298Y4305300D01*
X9524298Y4201238D01*
X9461500Y4201238D01*
X8453498Y3168599D02*
G01*
X9453499Y3168599D01*
X9453499Y3168599D02*
G01*
X9453499Y2398600D01*
X8453498Y3168599D02*
G01*
X8453498Y2398600D01*
X8453498Y2398600D02*
G01*
X9453499Y2398600D01*
X8453498Y2988655D02*
G01*
X9453499Y2988655D01*
X8453498Y2584140D02*
G01*
X9453499Y2584140D01*
X9461500Y3035300D02*
G01*
X9524298Y3035300D01*
X9524298Y2931238D01*
X9461500Y2931238D01*
X5389867Y1325293D02*
G01*
X6383794Y1325293D01*
X5389509Y1395125D02*
G01*
X5391795Y949698D01*
X6383794Y949698D01*
X6383794Y1395696D01*
X5389318Y1395442D01*
X6659867Y1325293D02*
G01*
X7653794Y1325293D01*
X6659509Y1395125D02*
G01*
X6661795Y949698D01*
X7653794Y949698D01*
X7653794Y1395696D01*
X6659318Y1395442D01*
X7929867Y1325293D02*
G01*
X8923794Y1325293D01*
X7929509Y1395125D02*
G01*
X7931795Y949698D01*
X8923794Y949698D01*
X8923794Y1395696D01*
X7929318Y1395442D01*
X9707867Y4373293D02*
G01*
X10701794Y4373293D01*
X9707509Y4443125D02*
G01*
X9709795Y3997698D01*
X10701794Y3997698D01*
X10701794Y4443696D01*
X9707318Y4443442D01*
X3835463Y1321661D02*
G01*
X3835463Y1241658D01*
X3724488Y1352646D02*
G01*
X3804485Y1352646D01*
X3724488Y1210680D02*
G01*
X3804485Y1210680D01*
X3666898Y1353228D02*
G01*
X3586899Y1353228D01*
X3555916Y1322245D02*
G01*
X3555916Y1242247D01*
X3666898Y1211267D02*
G01*
X3586899Y1211267D01*
X4343463Y1321661D02*
G01*
X4343463Y1241658D01*
X4232488Y1352646D02*
G01*
X4312485Y1352646D01*
X4232488Y1210680D02*
G01*
X4312485Y1210680D01*
X4174898Y1353228D02*
G01*
X4094899Y1353228D01*
X4063916Y1322245D02*
G01*
X4063916Y1242247D01*
X4174898Y1211267D02*
G01*
X4094899Y1211267D01*
G75*
G01*
X2031997Y1322245D02*
G02*
X2062980Y1353228I30983J0D01*
G75*
G01*
X2062980Y1211263D02*
G02*
X2031997Y1242248I0J30982D01*
G75*
G01*
X2280567Y1352647D02*
G02*
X2311550Y1321661I0J-30983D01*
G75*
G01*
X2311550Y1241664D02*
G02*
X2280567Y1210681I-30983J0D01*
G75*
G01*
X3047997Y1322245D02*
G02*
X3078980Y1353228I30983J0D01*
G75*
G01*
X3078980Y1211263D02*
G02*
X3047997Y1242248I0J30982D01*
G75*
G01*
X3296567Y1352647D02*
G02*
X3327550Y1321661I0J-30983D01*
G75*
G01*
X3327550Y1241664D02*
G02*
X3296567Y1210681I-30983J0D01*
G75*
G01*
X3784537Y2753406D02*
G03*
X3787076Y2753406I1270J-135343D01*
D12*
G75*
G01*
X833989Y811284D02*
G03*
X833989Y938284I0J63500D01*
D16*
G75*
G01*
X804494Y494284D02*
G03*
X804494Y494538I12499J127D01*
D17*
G75*
G01*
X882980Y710184D02*
G03*
X882980Y710692I29999J254D01*
D11*
G75*
G01*
X10463949Y3406061D02*
G02*
X10494932Y3437044I30983J0D01*
G75*
G01*
X10494932Y3295078D02*
G02*
X10463949Y3326064I0J30983D01*
G75*
G01*
X10712519Y3436463D02*
G02*
X10743501Y3405477I0J-30983D01*
G75*
G01*
X10743501Y3325480D02*
G02*
X10712519Y3294497I-30982J0D01*
G75*
G01*
X10463949Y2898061D02*
G02*
X10494932Y2929044I30983J0D01*
G75*
G01*
X10494932Y2787078D02*
G02*
X10463949Y2818064I0J30983D01*
G75*
G01*
X10712519Y2928463D02*
G02*
X10743501Y2897477I0J-30983D01*
G75*
G01*
X10743501Y2817480D02*
G02*
X10712519Y2786497I-30982J0D01*
G75*
G01*
X10463949Y2390061D02*
G02*
X10494932Y2421044I30983J0D01*
G75*
G01*
X10494932Y2279078D02*
G02*
X10463949Y2310064I0J30983D01*
G75*
G01*
X10712519Y2420463D02*
G02*
X10743501Y2389477I0J-30983D01*
G75*
G01*
X10743501Y2309480D02*
G02*
X10712519Y2278497I-30982J0D01*
G75*
G01*
X10463949Y1882061D02*
G02*
X10494932Y1913044I30983J0D01*
G75*
G01*
X10494932Y1771078D02*
G02*
X10463949Y1802064I0J30983D01*
G75*
G01*
X10712519Y1912463D02*
G02*
X10743501Y1881477I0J-30983D01*
G75*
G01*
X10743501Y1801480D02*
G02*
X10712519Y1770497I-30982J0D01*
G75*
G01*
X10463949Y1374061D02*
G02*
X10494932Y1405044I30983J0D01*
G75*
G01*
X10494932Y1263078D02*
G02*
X10463949Y1294064I0J30983D01*
G75*
G01*
X10712519Y1404463D02*
G02*
X10743501Y1373477I0J-30983D01*
G75*
G01*
X10743501Y1293480D02*
G02*
X10712519Y1262497I-30982J0D01*
D18*
G75*
G01*
X5417820Y2689860D02*
G03*
X5417820Y2689606I-20000J-127D01*
D11*
G75*
G01*
X3555911Y1322245D02*
G02*
X3586894Y1353228I30983J0D01*
G75*
G01*
X3586894Y1211263D02*
G02*
X3555911Y1242248I0J30982D01*
G75*
G01*
X3804481Y1352647D02*
G02*
X3835463Y1321661I0J-30983D01*
G75*
G01*
X3835463Y1241664D02*
G02*
X3804481Y1210681I-30982J0D01*
G75*
G01*
X4063911Y1322245D02*
G02*
X4094894Y1353228I30983J0D01*
G75*
G01*
X4094894Y1211263D02*
G02*
X4063911Y1242248I0J30982D01*
G75*
G01*
X4312481Y1352647D02*
G02*
X4343463Y1321661I0J-30983D01*
G75*
G01*
X4343463Y1241664D02*
G02*
X4312481Y1210681I-30982J0D01*
D19*
G75*
G01
X1183411Y5407304D02*
G03X1183411Y5407304I-15011J0D01*
G75*
G01
X1109472Y5189169D02*
G03X1109472Y5189169I-15011J0D01*
G75*
G01
X7266711Y3629304D02*
G03X7266711Y3629304I-15011J0D01*
G75*
G01
X7192772Y3411169D02*
G03X7192772Y3411169I-15011J0D01*
G75*
G01
X6250711Y2501184D02*
G03X6250711Y2501184I-15011J0D01*
G75*
G01
X6176772Y2301184D02*
G03X6176772Y2301184I-15011J0D01*
M02*
